<svg width="45" height="379" viewBox="0 0 45 379" fill="none" xmlns="http://www.w3.org/2000/svg">
<g id="Frame">
<rect width="45" height="379" fill="white"/>
<g id="arp out">
<rect id="Rectangle 2" x="6" y="309" width="34" height="43" rx="4" fill="#131313"/>
<path id="OUT" d="M19.9678 318.007C19.9678 318.634 19.8623 319.182 19.6514 319.651C19.4404 320.117 19.1416 320.473 18.7549 320.719C18.3682 320.965 17.917 321.088 17.4014 321.088C16.8975 321.088 16.4507 320.965 16.061 320.719C15.6714 320.47 15.3682 320.117 15.1514 319.66C14.9375 319.2 14.8276 318.668 14.8218 318.064V317.603C14.8218 316.988 14.9287 316.444 15.1426 315.973C15.3564 315.501 15.6582 315.141 16.0479 314.892C16.4404 314.64 16.8887 314.514 17.3926 314.514C17.9053 314.514 18.3564 314.638 18.7461 314.887C19.1387 315.133 19.4404 315.492 19.6514 315.964C19.8623 316.433 19.9678 316.979 19.9678 317.603V318.007ZM19.1284 317.594C19.1284 316.835 18.9761 316.254 18.6714 315.85C18.3667 315.442 17.9404 315.239 17.3926 315.239C16.8594 315.239 16.439 315.442 16.1313 315.85C15.8267 316.254 15.6699 316.816 15.6611 317.537V318.007C15.6611 318.743 15.8149 319.321 16.1226 319.743C16.4331 320.162 16.8594 320.372 17.4014 320.372C17.9463 320.372 18.3682 320.174 18.667 319.778C18.9658 319.38 19.1196 318.81 19.1284 318.069V317.594ZM25.7378 314.602V318.952C25.7349 319.556 25.5444 320.049 25.1665 320.433C24.7915 320.817 24.2817 321.032 23.6372 321.079L23.4131 321.088C22.7129 321.088 22.1548 320.899 21.7388 320.521C21.3228 320.143 21.1118 319.623 21.106 318.961V314.602H21.9409V318.935C21.9409 319.397 22.0684 319.758 22.3232 320.016C22.5781 320.271 22.9414 320.398 23.4131 320.398C23.8906 320.398 24.2554 320.271 24.5073 320.016C24.7622 319.761 24.8896 319.402 24.8896 318.939V314.602H25.7378ZM31.4902 315.296H29.4336V321H28.5942V315.296H26.542V314.602H31.4902V315.296Z" fill="white"/>
<circle id="ARP_OUT" cx="23" cy="337" r="11" fill="#C4C4C4"/>
</g>
<g id="Group">
<g id="gate in">
<path id="GATE" d="M17.5068 249.161C17.29 249.471 16.9868 249.704 16.5972 249.859C16.2104 250.012 15.7593 250.088 15.2437 250.088C14.7222 250.088 14.2593 249.966 13.855 249.723C13.4507 249.477 13.1372 249.128 12.9146 248.677C12.6948 248.226 12.582 247.703 12.5762 247.108V246.55C12.5762 245.586 12.8003 244.839 13.2485 244.309C13.6997 243.779 14.3325 243.514 15.147 243.514C15.8149 243.514 16.3525 243.685 16.7598 244.028C17.167 244.368 17.416 244.851 17.5068 245.478H16.6631C16.5049 244.631 16.001 244.208 15.1514 244.208C14.5859 244.208 14.1567 244.407 13.8638 244.806C13.5737 245.201 13.4272 245.775 13.4243 246.528V247.051C13.4243 247.769 13.5884 248.34 13.9165 248.765C14.2446 249.187 14.6885 249.398 15.248 249.398C15.5645 249.398 15.8413 249.363 16.0786 249.292C16.3159 249.222 16.5122 249.104 16.6675 248.937V247.5H15.1865V246.814H17.5068V249.161ZM22.4507 248.33H19.77L19.168 250H18.2979L20.7412 243.602H21.4795L23.9272 250H23.0615L22.4507 248.33ZM20.0249 247.636H22.2002L21.1104 244.643L20.0249 247.636ZM28.6382 244.296H26.5815V250H25.7422V244.296H23.6899V243.602H28.6382V244.296ZM33.2041 247.042H30.4312V249.31H33.6523V250H29.5874V243.602H33.6084V244.296H30.4312V246.353H33.2041V247.042Z" fill="black"/>
<circle id="GATE_IN" cx="23" cy="266" r="11" fill="#C4C4C4"/>
</g>
<g id="reset in">
<path id="RESET" d="M12.8003 202.412H11.2974V205H10.4492V198.602H12.5674C13.2881 198.602 13.8418 198.766 14.2285 199.094C14.6182 199.422 14.813 199.899 14.813 200.526C14.813 200.925 14.7046 201.272 14.4878 201.568C14.2739 201.864 13.9751 202.085 13.5913 202.231L15.0942 204.947V205H14.189L12.8003 202.412ZM11.2974 201.722H12.5938C13.0127 201.722 13.3452 201.613 13.5913 201.396C13.8403 201.18 13.9648 200.89 13.9648 200.526C13.9648 200.131 13.8462 199.828 13.6089 199.617C13.3745 199.406 13.0347 199.299 12.5894 199.296H11.2974V201.722ZM19.6162 202.042H16.8433V204.31H20.0645V205H15.9995V198.602H20.0205V199.296H16.8433V201.353H19.6162V202.042ZM23 202.148C22.2764 201.94 21.749 201.685 21.418 201.383C21.0898 201.079 20.9258 200.704 20.9258 200.258C20.9258 199.754 21.1265 199.338 21.5278 199.01C21.9321 198.679 22.4565 198.514 23.1011 198.514C23.5405 198.514 23.9316 198.599 24.2744 198.769C24.6201 198.938 24.8867 199.173 25.0742 199.472C25.2646 199.771 25.3599 200.097 25.3599 200.452H24.5117C24.5117 200.065 24.3887 199.762 24.1426 199.542C23.8965 199.319 23.5493 199.208 23.1011 199.208C22.6851 199.208 22.3599 199.3 22.1255 199.485C21.894 199.667 21.7783 199.92 21.7783 200.245C21.7783 200.506 21.8882 200.727 22.1079 200.909C22.3306 201.087 22.707 201.251 23.2373 201.401C23.7705 201.55 24.1865 201.716 24.4854 201.897C24.7871 202.076 25.0098 202.286 25.1533 202.526C25.2998 202.766 25.373 203.049 25.373 203.374C25.373 203.893 25.1709 204.309 24.7666 204.622C24.3623 204.933 23.8218 205.088 23.145 205.088C22.7056 205.088 22.2954 205.004 21.9146 204.837C21.5337 204.667 21.2393 204.436 21.0312 204.143C20.8262 203.85 20.7236 203.518 20.7236 203.146H21.5718C21.5718 203.532 21.7139 203.838 21.998 204.064C22.2852 204.287 22.6675 204.398 23.145 204.398C23.5903 204.398 23.9316 204.307 24.1689 204.125C24.4062 203.944 24.5249 203.696 24.5249 203.383C24.5249 203.069 24.415 202.828 24.1953 202.658C23.9756 202.485 23.5771 202.315 23 202.148ZM30.0752 202.042H27.3022V204.31H30.5234V205H26.4585V198.602H30.4795V199.296H27.3022V201.353H30.0752V202.042ZM36.0825 199.296H34.0259V205H33.1865V199.296H31.1343V198.602H36.0825V199.296Z" fill="black"/>
<circle id="RESET_IN" cx="23" cy="221" r="11" fill="#C4C4C4"/>
</g>
<g id="clock in">
<path id="CLOCK" d="M14.3955 157.97C14.3164 158.646 14.0659 159.169 13.644 159.539C13.2251 159.905 12.667 160.088 11.9697 160.088C11.2139 160.088 10.6074 159.817 10.1504 159.275C9.69629 158.733 9.46924 158.008 9.46924 157.1V156.484C9.46924 155.89 9.57471 155.367 9.78564 154.916C9.99951 154.464 10.3013 154.119 10.6909 153.878C11.0806 153.635 11.5317 153.514 12.0444 153.514C12.7241 153.514 13.269 153.704 13.6792 154.085C14.0894 154.463 14.3281 154.987 14.3955 155.658H13.5474C13.4741 155.148 13.3145 154.779 13.0684 154.551C12.8252 154.322 12.4839 154.208 12.0444 154.208C11.5054 154.208 11.082 154.407 10.7744 154.806C10.4697 155.204 10.3174 155.771 10.3174 156.506V157.126C10.3174 157.82 10.4624 158.373 10.7524 158.783C11.0425 159.193 11.4482 159.398 11.9697 159.398C12.4385 159.398 12.7974 159.292 13.0464 159.082C13.2983 158.868 13.4653 158.497 13.5474 157.97H14.3955ZM16.3994 159.31H19.4316V160H15.5513V153.602H16.3994V159.31ZM25.0259 157.007C25.0259 157.634 24.9204 158.182 24.7095 158.651C24.4985 159.117 24.1997 159.473 23.813 159.719C23.4263 159.965 22.9751 160.088 22.4595 160.088C21.9556 160.088 21.5088 159.965 21.1191 159.719C20.7295 159.47 20.4263 159.117 20.2095 158.66C19.9956 158.2 19.8857 157.668 19.8799 157.064V156.603C19.8799 155.988 19.9868 155.444 20.2007 154.973C20.4146 154.501 20.7163 154.141 21.106 153.892C21.4985 153.64 21.9468 153.514 22.4507 153.514C22.9634 153.514 23.4146 153.638 23.8042 153.887C24.1968 154.133 24.4985 154.492 24.7095 154.964C24.9204 155.433 25.0259 155.979 25.0259 156.603V157.007ZM24.1865 156.594C24.1865 155.835 24.0342 155.254 23.7295 154.85C23.4248 154.442 22.9985 154.239 22.4507 154.239C21.9175 154.239 21.4971 154.442 21.1895 154.85C20.8848 155.254 20.728 155.816 20.7192 156.537V157.007C20.7192 157.743 20.873 158.321 21.1807 158.743C21.4912 159.162 21.9175 159.372 22.4595 159.372C23.0044 159.372 23.4263 159.174 23.7251 158.778C24.0239 158.38 24.1777 157.81 24.1865 157.069V156.594ZM30.998 157.97C30.9189 158.646 30.6685 159.169 30.2466 159.539C29.8276 159.905 29.2695 160.088 28.5723 160.088C27.8164 160.088 27.21 159.817 26.7529 159.275C26.2988 158.733 26.0718 158.008 26.0718 157.1V156.484C26.0718 155.89 26.1772 155.367 26.3882 154.916C26.6021 154.464 26.9038 154.119 27.2935 153.878C27.6831 153.635 28.1343 153.514 28.647 153.514C29.3267 153.514 29.8716 153.704 30.2817 154.085C30.6919 154.463 30.9307 154.987 30.998 155.658H30.1499C30.0767 155.148 29.917 154.779 29.6709 154.551C29.4277 154.322 29.0864 154.208 28.647 154.208C28.1079 154.208 27.6846 154.407 27.377 154.806C27.0723 155.204 26.9199 155.771 26.9199 156.506V157.126C26.9199 157.82 27.0649 158.373 27.355 158.783C27.645 159.193 28.0508 159.398 28.5723 159.398C29.041 159.398 29.3999 159.292 29.6489 159.082C29.9009 158.868 30.0679 158.497 30.1499 157.97H30.998ZM33.7798 157.025L32.9976 157.838V160H32.1538V153.602H32.9976V156.766L35.8408 153.602H36.8604L34.3423 156.427L37.0581 160H36.0474L33.7798 157.025Z" fill="black"/>
<circle id="CLOCK_IN" cx="23" cy="176" r="11" fill="#C4C4C4"/>
</g>
<g id="signal in">
<path id="IN" d="M20.2139 115H19.3701V108.602H20.2139V115ZM26.6782 115H25.8301L22.6089 110.069V115H21.7607V108.602H22.6089L25.8389 113.554V108.602H26.6782V115Z" fill="black"/>
<circle id="SIG_IN" cx="23" cy="131" r="11" fill="#C4C4C4"/>
</g>
<g id="type in">
<path id="TYPE" d="M17.3442 64.2959H15.2876V70H14.4482V64.2959H12.396V63.6016H17.3442V64.2959ZM20.3149 66.814L21.9849 63.6016H22.9429L20.7368 67.6138V70H19.8931V67.6138L17.687 63.6016H18.6538L20.3149 66.814ZM24.6128 67.4951V70H23.769V63.6016H26.1289C26.8291 63.6016 27.377 63.7803 27.7725 64.1377C28.1709 64.4951 28.3701 64.9683 28.3701 65.5571C28.3701 66.1782 28.1753 66.6572 27.7856 66.9941C27.3989 67.3281 26.8438 67.4951 26.1201 67.4951H24.6128ZM24.6128 66.8052H26.1289C26.5801 66.8052 26.9258 66.6997 27.166 66.4888C27.4062 66.2749 27.5264 65.9673 27.5264 65.5659C27.5264 65.1851 27.4062 64.8804 27.166 64.6519C26.9258 64.4233 26.5962 64.3047 26.1772 64.2959H24.6128V66.8052ZM33.0635 67.0425H30.2905V69.3101H33.5117V70H29.4468V63.6016H33.4678V64.2959H30.2905V66.3525H33.0635V67.0425Z" fill="black"/>
<circle id="TYPE_IN" cx="23" cy="86" r="11" fill="#C4C4C4"/>
</g>
</g>
<g id="Group 3">
<circle id="TYPE_PARAM" cx="23" cy="32" r="11" fill="#C4C4C4"/>
<g id="Group 2">
<path id="Star" d="M8 41L9.89372 44.3935L13.7063 45.1459L11.0641 47.9956L11.5267 51.8541L8 50.2218L4.47329 51.8541L4.93589 47.9956L2.29366 45.1459L6.10628 44.3935L8 41Z" fill="#C4C4C4"/>
<path id="Star_2" d="M38 41L39.8937 44.3935L43.7063 45.1459L41.0641 47.9956L41.5267 51.8541L38 50.2218L34.4733 51.8541L34.9359 47.9956L32.2937 45.1459L36.1063 44.3935L38 41Z" fill="#C4C4C4"/>
<path id="Star_3" d="M38 11L39.8937 14.3935L43.7063 15.1459L41.0641 17.9956L41.5267 21.8541L38 20.2218L34.4733 21.8541L34.9359 17.9956L32.2937 15.1459L36.1063 14.3935L38 11Z" fill="#C4C4C4"/>
<path id="Star_4" d="M8 11L9.89372 14.3935L13.7063 15.1459L11.0641 17.9956L11.5267 21.8541L8 20.2218L4.47329 21.8541L4.93589 17.9956L2.29366 15.1459L6.10628 14.3935L8 11Z" fill="#C4C4C4"/>
</g>
</g>
</g>
</svg>
