<svg width="45" height="379" viewBox="0 0 45 379" fill="none" xmlns="http://www.w3.org/2000/svg">
<g id="Frame">
<rect width="45" height="379" fill="white"/>
<g id="arp out">
<rect id="Rectangle 2" x="6" y="309" width="34" height="43" rx="4" fill="#131313"/>
<path id="OUT" d="M19.9678 318.007C19.9678 318.634 19.8623 319.182 19.6514 319.651C19.4404 320.117 19.1416 320.473 18.7549 320.719C18.3682 320.965 17.917 321.088 17.4014 321.088C16.8975 321.088 16.4507 320.965 16.061 320.719C15.6714 320.47 15.3682 320.117 15.1514 319.66C14.9375 319.2 14.8276 318.668 14.8218 318.064V317.603C14.8218 316.988 14.9287 316.444 15.1426 315.973C15.3564 315.501 15.6582 315.141 16.0479 314.892C16.4404 314.64 16.8887 314.514 17.3926 314.514C17.9053 314.514 18.3564 314.638 18.7461 314.887C19.1387 315.133 19.4404 315.492 19.6514 315.964C19.8623 316.433 19.9678 316.979 19.9678 317.603V318.007ZM19.1284 317.594C19.1284 316.835 18.9761 316.254 18.6714 315.85C18.3667 315.442 17.9404 315.239 17.3926 315.239C16.8594 315.239 16.439 315.442 16.1313 315.85C15.8267 316.254 15.6699 316.816 15.6611 317.537V318.007C15.6611 318.743 15.8149 319.321 16.1226 319.743C16.4331 320.162 16.8594 320.372 17.4014 320.372C17.9463 320.372 18.3682 320.174 18.667 319.778C18.9658 319.38 19.1196 318.81 19.1284 318.069V317.594ZM25.7378 314.602V318.952C25.7349 319.556 25.5444 320.049 25.1665 320.433C24.7915 320.817 24.2817 321.032 23.6372 321.079L23.4131 321.088C22.7129 321.088 22.1548 320.899 21.7388 320.521C21.3228 320.143 21.1118 319.623 21.106 318.961V314.602H21.9409V318.935C21.9409 319.397 22.0684 319.758 22.3232 320.016C22.5781 320.271 22.9414 320.398 23.4131 320.398C23.8906 320.398 24.2554 320.271 24.5073 320.016C24.7622 319.761 24.8896 319.402 24.8896 318.939V314.602H25.7378ZM31.4902 315.296H29.4336V321H28.5942V315.296H26.542V314.602H31.4902V315.296Z" fill="white"/>
<circle id="ARP_OUT" cx="23" cy="337" r="11" fill="#C4C4C4"/>
</g>
<g id="Group">
<g id="gate in">
<path id="GATE" d="M17.5068 270.161C17.29 270.471 16.9868 270.704 16.5972 270.859C16.2104 271.012 15.7593 271.088 15.2437 271.088C14.7222 271.088 14.2593 270.966 13.855 270.723C13.4507 270.477 13.1372 270.128 12.9146 269.677C12.6948 269.226 12.582 268.703 12.5762 268.108V267.55C12.5762 266.586 12.8003 265.839 13.2485 265.309C13.6997 264.779 14.3325 264.514 15.147 264.514C15.8149 264.514 16.3525 264.685 16.7598 265.028C17.167 265.368 17.416 265.851 17.5068 266.478H16.6631C16.5049 265.631 16.001 265.208 15.1514 265.208C14.5859 265.208 14.1567 265.407 13.8638 265.806C13.5737 266.201 13.4272 266.775 13.4243 267.528V268.051C13.4243 268.769 13.5884 269.34 13.9165 269.765C14.2446 270.187 14.6885 270.398 15.248 270.398C15.5645 270.398 15.8413 270.363 16.0786 270.292C16.3159 270.222 16.5122 270.104 16.6675 269.937V268.5H15.1865V267.814H17.5068V270.161ZM22.4507 269.33H19.77L19.168 271H18.2979L20.7412 264.602H21.4795L23.9272 271H23.0615L22.4507 269.33ZM20.0249 268.636H22.2002L21.1104 265.643L20.0249 268.636ZM28.6382 265.296H26.5815V271H25.7422V265.296H23.6899V264.602H28.6382V265.296ZM33.2041 268.042H30.4312V270.31H33.6523V271H29.5874V264.602H33.6084V265.296H30.4312V267.353H33.2041V268.042Z" fill="black"/>
<circle id="GATE_IN" cx="23" cy="287" r="11" fill="#C4C4C4"/>
</g>
<g id="reset in">
<path id="RESET" d="M12.8003 223.412H11.2974V226H10.4492V219.602H12.5674C13.2881 219.602 13.8418 219.766 14.2285 220.094C14.6182 220.422 14.813 220.899 14.813 221.526C14.813 221.925 14.7046 222.272 14.4878 222.568C14.2739 222.864 13.9751 223.085 13.5913 223.231L15.0942 225.947V226H14.189L12.8003 223.412ZM11.2974 222.722H12.5938C13.0127 222.722 13.3452 222.613 13.5913 222.396C13.8403 222.18 13.9648 221.89 13.9648 221.526C13.9648 221.131 13.8462 220.828 13.6089 220.617C13.3745 220.406 13.0347 220.299 12.5894 220.296H11.2974V222.722ZM19.6162 223.042H16.8433V225.31H20.0645V226H15.9995V219.602H20.0205V220.296H16.8433V222.353H19.6162V223.042ZM23 223.148C22.2764 222.94 21.749 222.685 21.418 222.383C21.0898 222.079 20.9258 221.704 20.9258 221.258C20.9258 220.754 21.1265 220.338 21.5278 220.01C21.9321 219.679 22.4565 219.514 23.1011 219.514C23.5405 219.514 23.9316 219.599 24.2744 219.769C24.6201 219.938 24.8867 220.173 25.0742 220.472C25.2646 220.771 25.3599 221.097 25.3599 221.452H24.5117C24.5117 221.065 24.3887 220.762 24.1426 220.542C23.8965 220.319 23.5493 220.208 23.1011 220.208C22.6851 220.208 22.3599 220.3 22.1255 220.485C21.894 220.667 21.7783 220.92 21.7783 221.245C21.7783 221.506 21.8882 221.727 22.1079 221.909C22.3306 222.087 22.707 222.251 23.2373 222.401C23.7705 222.55 24.1865 222.716 24.4854 222.897C24.7871 223.076 25.0098 223.286 25.1533 223.526C25.2998 223.766 25.373 224.049 25.373 224.374C25.373 224.893 25.1709 225.309 24.7666 225.622C24.3623 225.933 23.8218 226.088 23.145 226.088C22.7056 226.088 22.2954 226.004 21.9146 225.837C21.5337 225.667 21.2393 225.436 21.0312 225.143C20.8262 224.85 20.7236 224.518 20.7236 224.146H21.5718C21.5718 224.532 21.7139 224.838 21.998 225.064C22.2852 225.287 22.6675 225.398 23.145 225.398C23.5903 225.398 23.9316 225.307 24.1689 225.125C24.4062 224.944 24.5249 224.696 24.5249 224.383C24.5249 224.069 24.415 223.828 24.1953 223.658C23.9756 223.485 23.5771 223.315 23 223.148ZM30.0752 223.042H27.3022V225.31H30.5234V226H26.4585V219.602H30.4795V220.296H27.3022V222.353H30.0752V223.042ZM36.0825 220.296H34.0259V226H33.1865V220.296H31.1343V219.602H36.0825V220.296Z" fill="black"/>
<circle id="RESET_IN" cx="23" cy="242" r="11" fill="#C4C4C4"/>
</g>
<g id="clock in">
<path id="CLOCK" d="M14.3955 178.97C14.3164 179.646 14.0659 180.169 13.644 180.539C13.2251 180.905 12.667 181.088 11.9697 181.088C11.2139 181.088 10.6074 180.817 10.1504 180.275C9.69629 179.733 9.46924 179.008 9.46924 178.1V177.484C9.46924 176.89 9.57471 176.367 9.78564 175.916C9.99951 175.464 10.3013 175.119 10.6909 174.878C11.0806 174.635 11.5317 174.514 12.0444 174.514C12.7241 174.514 13.269 174.704 13.6792 175.085C14.0894 175.463 14.3281 175.987 14.3955 176.658H13.5474C13.4741 176.148 13.3145 175.779 13.0684 175.551C12.8252 175.322 12.4839 175.208 12.0444 175.208C11.5054 175.208 11.082 175.407 10.7744 175.806C10.4697 176.204 10.3174 176.771 10.3174 177.506V178.126C10.3174 178.82 10.4624 179.373 10.7524 179.783C11.0425 180.193 11.4482 180.398 11.9697 180.398C12.4385 180.398 12.7974 180.292 13.0464 180.082C13.2983 179.868 13.4653 179.497 13.5474 178.97H14.3955ZM16.3994 180.31H19.4316V181H15.5513V174.602H16.3994V180.31ZM25.0259 178.007C25.0259 178.634 24.9204 179.182 24.7095 179.651C24.4985 180.117 24.1997 180.473 23.813 180.719C23.4263 180.965 22.9751 181.088 22.4595 181.088C21.9556 181.088 21.5088 180.965 21.1191 180.719C20.7295 180.47 20.4263 180.117 20.2095 179.66C19.9956 179.2 19.8857 178.668 19.8799 178.064V177.603C19.8799 176.988 19.9868 176.444 20.2007 175.973C20.4146 175.501 20.7163 175.141 21.106 174.892C21.4985 174.64 21.9468 174.514 22.4507 174.514C22.9634 174.514 23.4146 174.638 23.8042 174.887C24.1968 175.133 24.4985 175.492 24.7095 175.964C24.9204 176.433 25.0259 176.979 25.0259 177.603V178.007ZM24.1865 177.594C24.1865 176.835 24.0342 176.254 23.7295 175.85C23.4248 175.442 22.9985 175.239 22.4507 175.239C21.9175 175.239 21.4971 175.442 21.1895 175.85C20.8848 176.254 20.728 176.816 20.7192 177.537V178.007C20.7192 178.743 20.873 179.321 21.1807 179.743C21.4912 180.162 21.9175 180.372 22.4595 180.372C23.0044 180.372 23.4263 180.174 23.7251 179.778C24.0239 179.38 24.1777 178.81 24.1865 178.069V177.594ZM30.998 178.97C30.9189 179.646 30.6685 180.169 30.2466 180.539C29.8276 180.905 29.2695 181.088 28.5723 181.088C27.8164 181.088 27.21 180.817 26.7529 180.275C26.2988 179.733 26.0718 179.008 26.0718 178.1V177.484C26.0718 176.89 26.1772 176.367 26.3882 175.916C26.6021 175.464 26.9038 175.119 27.2935 174.878C27.6831 174.635 28.1343 174.514 28.647 174.514C29.3267 174.514 29.8716 174.704 30.2817 175.085C30.6919 175.463 30.9307 175.987 30.998 176.658H30.1499C30.0767 176.148 29.917 175.779 29.6709 175.551C29.4277 175.322 29.0864 175.208 28.647 175.208C28.1079 175.208 27.6846 175.407 27.377 175.806C27.0723 176.204 26.9199 176.771 26.9199 177.506V178.126C26.9199 178.82 27.0649 179.373 27.355 179.783C27.645 180.193 28.0508 180.398 28.5723 180.398C29.041 180.398 29.3999 180.292 29.6489 180.082C29.9009 179.868 30.0679 179.497 30.1499 178.97H30.998ZM33.7798 178.025L32.9976 178.838V181H32.1538V174.602H32.9976V177.766L35.8408 174.602H36.8604L34.3423 177.427L37.0581 181H36.0474L33.7798 178.025Z" fill="black"/>
<circle id="CLOCK_IN" cx="23" cy="197" r="11" fill="#C4C4C4"/>
</g>
<g id="signal in">
<path id="IN" d="M20.2139 136H19.3701V129.602H20.2139V136ZM26.6782 136H25.8301L22.6089 131.069V136H21.7607V129.602H22.6089L25.8389 134.554V129.602H26.6782V136Z" fill="black"/>
<circle id="SIG_IN" cx="23" cy="152" r="11" fill="#C4C4C4"/>
</g>
<g id="type in">
<path id="TYPE" d="M17.3442 85.2959H15.2876V91H14.4482V85.2959H12.396V84.6016H17.3442V85.2959ZM20.3149 87.814L21.9849 84.6016H22.9429L20.7368 88.6138V91H19.8931V88.6138L17.687 84.6016H18.6538L20.3149 87.814ZM24.6128 88.4951V91H23.769V84.6016H26.1289C26.8291 84.6016 27.377 84.7803 27.7725 85.1377C28.1709 85.4951 28.3701 85.9683 28.3701 86.5571C28.3701 87.1782 28.1753 87.6572 27.7856 87.9941C27.3989 88.3281 26.8438 88.4951 26.1201 88.4951H24.6128ZM24.6128 87.8052H26.1289C26.5801 87.8052 26.9258 87.6997 27.166 87.4888C27.4062 87.2749 27.5264 86.9673 27.5264 86.5659C27.5264 86.1851 27.4062 85.8804 27.166 85.6519C26.9258 85.4233 26.5962 85.3047 26.1772 85.2959H24.6128V87.8052ZM33.0635 88.0425H30.2905V90.3101H33.5117V91H29.4468V84.6016H33.4678V85.2959H30.2905V87.3525H33.0635V88.0425Z" fill="black"/>
<circle id="TYPE_IN" cx="23" cy="107" r="11" fill="#C4C4C4"/>
</g>
</g>
<g id="Group 3">
<circle id="TYPE_PARAM" cx="23" cy="32" r="11" fill="#C4C4C4"/>
<g id="Group 2">
<path id="Star" d="M8 41L9.89372 44.3935L13.7063 45.1459L11.0641 47.9956L11.5267 51.8541L8 50.2218L4.47329 51.8541L4.93589 47.9956L2.29366 45.1459L6.10628 44.3935L8 41Z" fill="#C4C4C4"/>
<path id="Star_2" d="M38 41L39.8937 44.3935L43.7063 45.1459L41.0641 47.9956L41.5267 51.8541L38 50.2218L34.4733 51.8541L34.9359 47.9956L32.2937 45.1459L36.1063 44.3935L38 41Z" fill="#C4C4C4"/>
<path id="Star_3" d="M38 11L39.8937 14.3935L43.7063 15.1459L41.0641 17.9956L41.5267 21.8541L38 20.2218L34.4733 21.8541L34.9359 17.9956L32.2937 15.1459L36.1063 14.3935L38 11Z" fill="#C4C4C4"/>
<path id="Star_4" d="M8 11L9.89372 14.3935L13.7063 15.1459L11.0641 17.9956L11.5267 21.8541L8 20.2218L4.47329 21.8541L4.93589 17.9956L2.29366 15.1459L6.10628 14.3935L8 11Z" fill="#C4C4C4"/>
</g>
</g>
</g>
</svg>
