<svg xmlns="http://www.w3.org/2000/svg" width="40.57mm" height="128.41mm" viewBox="0 0 115 364"><title>Glass</title><rect width="115" height="364" style="fill:#fff"/><path d="M30.4,29.4h1v7.21h3.45v.87H30.4Z"/><path d="M41.11,34.53a2.84,2.84,0,0,1-2.89,3.09,2.76,2.76,0,0,1-2.78-3,2.83,2.83,0,0,1,2.87-3.08A2.75,2.75,0,0,1,41.11,34.53Zm-4.61.06c0,1.27.73,2.23,1.77,2.23S40,35.88,40,34.57c0-1-.49-2.23-1.74-2.23S36.5,33.49,36.5,34.59Z"/><path d="M42.44,33.49c0-.68,0-1.27,0-1.81h.92l0,1.14h0A1.75,1.75,0,0,1,45,31.55a1.39,1.39,0,0,1,.3,0v1a1.32,1.32,0,0,0-.36,0,1.5,1.5,0,0,0-1.42,1.36,3.47,3.47,0,0,0,0,.49v3.09H42.44Z"/><path d="M46.83,34.77a1.87,1.87,0,0,0,2,2,3.75,3.75,0,0,0,1.6-.3l.18.75a4.67,4.67,0,0,1-1.93.36,2.69,2.69,0,0,1-2.85-2.92c0-1.75,1-3.13,2.72-3.13A2.46,2.46,0,0,1,51,34.28a4,4,0,0,1,0,.49Zm3.1-.75a1.51,1.51,0,0,0-1.46-1.72A1.75,1.75,0,0,0,46.85,34Z"/><path d="M52.26,33.25c0-.6,0-1.09,0-1.57h.92l0,.93h0A2,2,0,0,1,55,31.55a1.71,1.71,0,0,1,1.64,1.16h0a2.31,2.31,0,0,1,.65-.75,1.93,1.93,0,0,1,1.28-.41c.77,0,1.91.5,1.91,2.52v3.41h-1V34.2c0-1.12-.4-1.79-1.25-1.79a1.36,1.36,0,0,0-1.25,1,1.68,1.68,0,0,0-.09.53v3.58h-1V34c0-.93-.41-1.6-1.21-1.6a1.45,1.45,0,0,0-1.31,1.06,1.4,1.4,0,0,0-.08.51v3.5h-1Z"/><path d="M66,30.05a.63.63,0,0,1-.68.65.63.63,0,0,1-.63-.65.65.65,0,0,1,.66-.66A.63.63,0,0,1,66,30.05Zm-1.18,7.43v-5.8h1.06v5.8Z"/><path d="M67.62,33.57c0-.74,0-1.34-.05-1.89h1l0,1h0a2.29,2.29,0,0,1,2.06-1.12c1.41,0,2.46,1.18,2.46,2.95,0,2.08-1.27,3.12-2.64,3.12a2,2,0,0,1-1.78-.92h0v3.16h-1Zm1,1.55a2.68,2.68,0,0,0,0,.43,1.63,1.63,0,0,0,1.58,1.24c1.12,0,1.77-.91,1.77-2.24,0-1.17-.62-2.16-1.73-2.16a1.69,1.69,0,0,0-1.6,1.3,2.13,2.13,0,0,0-.07.44Z"/><path d="M74.3,36.4a2.72,2.72,0,0,0,1.39.42c.77,0,1.13-.38,1.13-.86s-.3-.78-1.08-1.07c-1-.37-1.53-.94-1.53-1.64a1.78,1.78,0,0,1,2-1.7,2.83,2.83,0,0,1,1.43.36l-.27.76a2.32,2.32,0,0,0-1.19-.33c-.62,0-1,.36-1,.79s.35.7,1.11,1c1,.39,1.52.89,1.52,1.75,0,1-.79,1.74-2.17,1.74A3.3,3.3,0,0,1,74,37.21Z"/><path d="M84.05,35.9c0,.6,0,1.13,0,1.58h-.93l-.06-.94h0a2.18,2.18,0,0,1-1.91,1.08c-.92,0-2-.51-2-2.55V31.68h1.06v3.21c0,1.11.33,1.85,1.29,1.85a1.52,1.52,0,0,0,1.39-1,1.57,1.57,0,0,0,.1-.54V31.68h1Z"/><path d="M85.81,33.25c0-.6,0-1.09,0-1.57h.93l0,.93h0a2,2,0,0,1,1.82-1.06,1.74,1.74,0,0,1,1.65,1.16h0a2.31,2.31,0,0,1,.65-.75,1.93,1.93,0,0,1,1.28-.41c.77,0,1.91.5,1.91,2.52v3.41h-1V34.2c0-1.12-.41-1.79-1.26-1.79a1.36,1.36,0,0,0-1.25,1,1.69,1.69,0,0,0-.08.53v3.58h-1V34c0-.93-.4-1.6-1.21-1.6a1.43,1.43,0,0,0-1.3,1.06,1.4,1.4,0,0,0-.09.51v3.5h-1Z"/></svg>