<svg width="45" height="379" viewBox="0 0 45 379" fill="none" xmlns="http://www.w3.org/2000/svg">
<g id="PolyArp">
<rect width="45" height="379" fill="white"/>
<g id="Group">
<g id="gate in">
<path id="GATE" d="M18.0352 226H17.855L17.5254 225.495C17.3877 225.676 17.2207 225.821 17.0244 225.93C16.8281 226.035 16.6099 226.088 16.3696 226.088H16.04C15.8262 226.088 15.624 226.048 15.4336 225.969C15.2461 225.887 15.082 225.776 14.9414 225.635C14.8008 225.495 14.6895 225.331 14.6074 225.143C14.5283 224.956 14.4888 224.755 14.4888 224.541V221.157C14.4888 220.943 14.5283 220.743 14.6074 220.555C14.6895 220.368 14.8008 220.204 14.9414 220.063C15.082 219.922 15.2461 219.812 15.4336 219.733C15.624 219.651 15.8262 219.61 16.04 219.61H16.4883C16.7021 219.61 16.9028 219.651 17.0903 219.733C17.2778 219.812 17.4419 219.922 17.5825 220.063C17.7231 220.204 17.833 220.368 17.9121 220.555C17.9941 220.743 18.0352 220.943 18.0352 221.157V221.412L17.4683 221.5V221.157C17.4683 221.017 17.4419 220.886 17.3892 220.766C17.3364 220.643 17.2646 220.536 17.1738 220.445C17.083 220.354 16.9761 220.283 16.853 220.23C16.7329 220.177 16.6025 220.151 16.4619 220.151H16.0664C15.9258 220.151 15.7939 220.177 15.6709 220.23C15.5508 220.283 15.4438 220.354 15.3501 220.445C15.2593 220.536 15.1875 220.643 15.1348 220.766C15.082 220.886 15.0557 221.017 15.0557 221.157V224.541C15.0557 224.682 15.082 224.813 15.1348 224.937C15.1875 225.057 15.2593 225.164 15.3501 225.257C15.4438 225.348 15.5508 225.42 15.6709 225.473C15.7939 225.525 15.9258 225.552 16.0664 225.552H16.4619C16.6025 225.552 16.7329 225.525 16.853 225.473C16.9761 225.42 17.083 225.348 17.1738 225.257C17.2646 225.164 17.3364 225.057 17.3892 224.937C17.4419 224.813 17.4683 224.682 17.4683 224.541V223.227H16.4619V222.687H18.0352V226ZM21.7529 224.532H19.7578L19.3447 226H18.7559L20.6016 219.698H20.9004L22.7549 226H22.1704L21.7529 224.532ZM19.9116 223.992H21.6035L20.7729 221.087L20.7554 220.854L20.7378 221.087L19.9116 223.992ZM24.8203 220.239V226H24.2534V220.239H22.7505V219.698H26.3232V220.239H24.8203ZM27.2285 226V219.698H30.7749V220.239H27.7954V222.581H30.208V223.122H27.7954V225.459H30.7749V226H27.2285Z" fill="black"/>
<circle id="GATE_IN" cx="22.5" cy="242" r="11" fill="#C4C4C4"/>
</g>
<g id="reset in">
<path id="RESET" d="M14.8931 187L13.1836 184.311H12.4058V187H11.8389V180.698H13.8384C14.0522 180.698 14.2529 180.739 14.4404 180.821C14.6279 180.9 14.792 181.01 14.9326 181.151C15.0732 181.292 15.1831 181.457 15.2622 181.647C15.3442 181.835 15.3853 182.036 15.3853 182.25V182.759C15.3853 182.973 15.3442 183.175 15.2622 183.366C15.1831 183.553 15.0732 183.717 14.9326 183.858C14.792 183.999 14.6279 184.11 14.4404 184.192C14.2529 184.271 14.0522 184.311 13.8384 184.311L15.5479 187H14.8931ZM14.8184 182.25C14.8184 182.109 14.792 181.979 14.7393 181.858C14.6865 181.735 14.6147 181.628 14.5239 181.538C14.4331 181.444 14.3262 181.371 14.2031 181.318C14.083 181.265 13.9526 181.239 13.812 181.239H12.4058V183.77H13.812C13.9526 183.77 14.083 183.744 14.2031 183.691C14.3262 183.638 14.4331 183.566 14.5239 183.476C14.6147 183.382 14.6865 183.275 14.7393 183.155C14.792 183.032 14.8184 182.9 14.8184 182.759V182.25ZM16.6333 187V180.698H20.1797V181.239H17.2002V183.581H19.6128V184.122H17.2002V186.459H20.1797V187H16.6333ZM24.7192 185.541C24.7192 185.755 24.6753 185.956 24.5874 186.143C24.5024 186.331 24.3867 186.495 24.2402 186.635C24.0967 186.776 23.9282 186.887 23.7349 186.969C23.5444 187.048 23.3423 187.088 23.1284 187.088H22.6758C22.4619 187.088 22.2583 187.048 22.0649 186.969C21.8745 186.887 21.7061 186.776 21.5596 186.635C21.416 186.495 21.3003 186.331 21.2124 186.143C21.1274 185.956 21.085 185.755 21.085 185.541V185.291L21.6519 185.198V185.541C21.6519 185.682 21.6797 185.813 21.7354 185.937C21.7939 186.057 21.8716 186.164 21.9683 186.257C22.0649 186.348 22.1763 186.42 22.3022 186.473C22.4312 186.525 22.5659 186.552 22.7065 186.552H23.1021C23.2427 186.552 23.376 186.525 23.502 186.473C23.6279 186.42 23.7393 186.348 23.8359 186.257C23.9326 186.164 24.0088 186.057 24.0645 185.937C24.123 185.813 24.1523 185.682 24.1523 185.541V185.352C24.1523 185.135 24.1099 184.955 24.0249 184.812C23.9399 184.668 23.8271 184.546 23.6865 184.447C23.5459 184.344 23.3862 184.258 23.2075 184.188C23.0317 184.117 22.8501 184.047 22.6626 183.977C22.4751 183.906 22.292 183.829 22.1133 183.744C21.9375 183.659 21.7793 183.553 21.6387 183.427C21.498 183.298 21.3853 183.142 21.3003 182.957C21.2153 182.772 21.1729 182.545 21.1729 182.276V182.157C21.1729 181.943 21.2124 181.743 21.2915 181.555C21.3735 181.368 21.4849 181.204 21.6255 181.063C21.7661 180.922 21.9302 180.812 22.1177 180.733C22.3081 180.651 22.5103 180.61 22.7241 180.61H23.1284C23.3423 180.61 23.543 180.651 23.7305 180.733C23.918 180.812 24.082 180.922 24.2227 181.063C24.3633 181.204 24.4731 181.368 24.5522 181.555C24.6343 181.743 24.6753 181.943 24.6753 182.157V182.32L24.1084 182.412V182.157C24.1084 182.017 24.082 181.886 24.0293 181.766C23.9766 181.643 23.9048 181.536 23.814 181.445C23.7231 181.354 23.6162 181.283 23.4932 181.23C23.373 181.177 23.2427 181.151 23.1021 181.151H22.7505C22.6099 181.151 22.478 181.177 22.355 181.23C22.2349 181.283 22.1279 181.354 22.0342 181.445C21.9434 181.536 21.8716 181.643 21.8188 181.766C21.7661 181.886 21.7397 182.017 21.7397 182.157V182.276C21.7397 182.478 21.7822 182.648 21.8672 182.786C21.9521 182.923 22.0649 183.042 22.2056 183.142C22.3462 183.238 22.5044 183.323 22.6802 183.396C22.8589 183.467 23.042 183.54 23.2295 183.616C23.417 183.689 23.5986 183.771 23.7744 183.862C23.9531 183.95 24.1128 184.06 24.2534 184.192C24.394 184.321 24.5068 184.479 24.5918 184.667C24.6768 184.854 24.7192 185.083 24.7192 185.352V185.541ZM25.9409 187V180.698H29.4873V181.239H26.5078V183.581H28.9204V184.122H26.5078V186.459H29.4873V187H25.9409ZM32.1021 181.239V187H31.5352V181.239H30.0322V180.698H33.605V181.239H32.1021Z" fill="black"/>
<circle id="RESET_IN" cx="22.5" cy="203" r="11" fill="#C4C4C4"/>
</g>
<g id="clock in">
<path id="CLOCK" d="M15.3149 146.541C15.3149 146.755 15.2739 146.956 15.1919 147.143C15.1128 147.331 15.0029 147.495 14.8623 147.635C14.7217 147.776 14.5576 147.887 14.3701 147.969C14.1826 148.048 13.9819 148.088 13.7681 148.088H13.3198C13.106 148.088 12.9038 148.048 12.7134 147.969C12.5259 147.887 12.3618 147.776 12.2212 147.635C12.0806 147.495 11.9692 147.331 11.8872 147.143C11.8081 146.956 11.7686 146.755 11.7686 146.541V143.157C11.7686 142.943 11.8081 142.743 11.8872 142.555C11.9692 142.368 12.0806 142.204 12.2212 142.063C12.3618 141.922 12.5259 141.812 12.7134 141.733C12.9038 141.651 13.106 141.61 13.3198 141.61H13.7681C13.9819 141.61 14.1826 141.651 14.3701 141.733C14.5576 141.812 14.7217 141.922 14.8623 142.063C15.0029 142.204 15.1128 142.368 15.1919 142.555C15.2739 142.743 15.3149 142.943 15.3149 143.157V143.412L14.748 143.5V143.157C14.748 143.017 14.7217 142.886 14.6689 142.766C14.6162 142.643 14.5444 142.536 14.4536 142.445C14.3628 142.354 14.2559 142.283 14.1328 142.23C14.0127 142.177 13.8823 142.151 13.7417 142.151H13.3462C13.2056 142.151 13.0737 142.177 12.9507 142.23C12.8306 142.283 12.7236 142.354 12.6299 142.445C12.5391 142.536 12.4673 142.643 12.4146 142.766C12.3618 142.886 12.3354 143.017 12.3354 143.157V146.541C12.3354 146.682 12.3618 146.813 12.4146 146.937C12.4673 147.057 12.5391 147.164 12.6299 147.257C12.7236 147.348 12.8306 147.42 12.9507 147.473C13.0737 147.525 13.2056 147.552 13.3462 147.552H13.7417C13.8823 147.552 14.0127 147.525 14.1328 147.473C14.2559 147.42 14.3628 147.348 14.4536 147.257C14.5444 147.164 14.6162 147.057 14.6689 146.937C14.7217 146.813 14.748 146.682 14.748 146.541V146.198L15.3149 146.291V146.541ZM16.4883 148V141.698H17.0552V147.459H19.4678V148H16.4883ZM23.8228 146.541C23.8228 146.755 23.7817 146.956 23.6997 147.143C23.6206 147.331 23.5107 147.495 23.3701 147.635C23.2295 147.776 23.0654 147.887 22.8779 147.969C22.6904 148.048 22.4897 148.088 22.2759 148.088H21.8276C21.6138 148.088 21.4116 148.048 21.2212 147.969C21.0337 147.887 20.8696 147.776 20.729 147.635C20.5884 147.495 20.4771 147.331 20.395 147.143C20.3159 146.956 20.2764 146.755 20.2764 146.541V143.157C20.2764 142.943 20.3159 142.743 20.395 142.555C20.4771 142.368 20.5884 142.204 20.729 142.063C20.8696 141.922 21.0337 141.812 21.2212 141.733C21.4116 141.651 21.6138 141.61 21.8276 141.61H22.2759C22.4897 141.61 22.6904 141.651 22.8779 141.733C23.0654 141.812 23.2295 141.922 23.3701 142.063C23.5107 142.204 23.6206 142.368 23.6997 142.555C23.7817 142.743 23.8228 142.943 23.8228 143.157V146.541ZM23.2559 143.157C23.2559 143.017 23.2295 142.886 23.1768 142.766C23.124 142.643 23.0522 142.536 22.9614 142.445C22.8706 142.354 22.7637 142.283 22.6406 142.23C22.5205 142.177 22.3901 142.151 22.2495 142.151H21.854C21.7134 142.151 21.5815 142.177 21.4585 142.23C21.3384 142.283 21.2314 142.354 21.1377 142.445C21.0469 142.536 20.9751 142.643 20.9224 142.766C20.8696 142.886 20.8433 143.017 20.8433 143.157V146.541C20.8433 146.682 20.8696 146.813 20.9224 146.937C20.9751 147.057 21.0469 147.164 21.1377 147.257C21.2314 147.348 21.3384 147.42 21.4585 147.473C21.5815 147.525 21.7134 147.552 21.854 147.552H22.2495C22.3901 147.552 22.5205 147.525 22.6406 147.473C22.7637 147.42 22.8706 147.348 22.9614 147.257C23.0522 147.164 23.124 147.057 23.1768 146.937C23.2295 146.813 23.2559 146.682 23.2559 146.541V143.157ZM28.6304 146.541C28.6304 146.755 28.5894 146.956 28.5073 147.143C28.4282 147.331 28.3184 147.495 28.1777 147.635C28.0371 147.776 27.873 147.887 27.6855 147.969C27.498 148.048 27.2974 148.088 27.0835 148.088H26.6353C26.4214 148.088 26.2192 148.048 26.0288 147.969C25.8413 147.887 25.6772 147.776 25.5366 147.635C25.396 147.495 25.2847 147.331 25.2026 147.143C25.1235 146.956 25.084 146.755 25.084 146.541V143.157C25.084 142.943 25.1235 142.743 25.2026 142.555C25.2847 142.368 25.396 142.204 25.5366 142.063C25.6772 141.922 25.8413 141.812 26.0288 141.733C26.2192 141.651 26.4214 141.61 26.6353 141.61H27.0835C27.2974 141.61 27.498 141.651 27.6855 141.733C27.873 141.812 28.0371 141.922 28.1777 142.063C28.3184 142.204 28.4282 142.368 28.5073 142.555C28.5894 142.743 28.6304 142.943 28.6304 143.157V143.412L28.0635 143.5V143.157C28.0635 143.017 28.0371 142.886 27.9844 142.766C27.9316 142.643 27.8599 142.536 27.769 142.445C27.6782 142.354 27.5713 142.283 27.4482 142.23C27.3281 142.177 27.1978 142.151 27.0571 142.151H26.6616C26.521 142.151 26.3892 142.177 26.2661 142.23C26.146 142.283 26.0391 142.354 25.9453 142.445C25.8545 142.536 25.7827 142.643 25.73 142.766C25.6772 142.886 25.6509 143.017 25.6509 143.157V146.541C25.6509 146.682 25.6772 146.813 25.73 146.937C25.7827 147.057 25.8545 147.164 25.9453 147.257C26.0391 147.348 26.146 147.42 26.2661 147.473C26.3892 147.525 26.521 147.552 26.6616 147.552H27.0571C27.1978 147.552 27.3281 147.525 27.4482 147.473C27.5713 147.42 27.6782 147.348 27.769 147.257C27.8599 147.164 27.9316 147.057 27.9844 146.937C28.0371 146.813 28.0635 146.682 28.0635 146.541V146.198L28.6304 146.291V146.541ZM32.9722 148L30.5991 144.849L32.9722 141.698H33.6753L31.2539 144.849L33.6753 148H32.9722ZM29.896 148V141.698H30.4629V148H29.896Z" fill="black"/>
<circle id="CLOCK_IN" cx="22.5" cy="164" r="11" fill="#C4C4C4"/>
</g>
<g id="signal in">
<path id="IN" d="M19.7183 109V102.698H20.2852V109H19.7183ZM24.9785 109L22.3506 104.412L22.2979 104.14V109H21.731V102.698H22.0254L24.6533 107.291L24.7104 107.559V102.698H25.2773V109H24.9785Z" fill="black"/>
<circle id="SIG_IN" cx="22.5" cy="125" r="11" fill="#C4C4C4"/>
</g>
<g id="type in">
<path id="TYPE" d="M16.062 64.2388V70H15.4951V64.2388H13.9922V63.6982H17.5649V64.2388H16.062ZM20.127 66.9854V70H19.5601V66.9941L17.9297 63.6982H18.5405L19.8369 66.3174L21.1333 63.6982H21.7441L20.127 66.9854ZM26.1914 66.0317C26.1914 66.2456 26.1504 66.4463 26.0684 66.6338C25.9893 66.8213 25.8794 66.9854 25.7388 67.126C25.5981 67.2666 25.4326 67.3779 25.2422 67.46C25.0547 67.5391 24.854 67.5786 24.6401 67.5786H23.2119V70H22.645V63.6982H24.6401C24.854 63.6982 25.0547 63.7393 25.2422 63.8213C25.4326 63.9004 25.5981 64.0103 25.7388 64.1509C25.8794 64.2915 25.9893 64.457 26.0684 64.6475C26.1504 64.835 26.1914 65.0356 26.1914 65.2495V66.0317ZM25.6245 65.2495C25.6245 65.1089 25.5981 64.9785 25.5454 64.8584C25.4927 64.7354 25.4194 64.6284 25.3257 64.5376C25.2349 64.4438 25.1279 64.3706 25.0049 64.3179C24.8848 64.2651 24.7544 64.2388 24.6138 64.2388H23.2119V67.0381H24.6138C24.7544 67.0381 24.8848 67.0117 25.0049 66.959C25.1279 66.9062 25.2349 66.8345 25.3257 66.7437C25.4194 66.6528 25.4927 66.5474 25.5454 66.4272C25.5981 66.3042 25.6245 66.1724 25.6245 66.0317V65.2495ZM27.2769 70V63.6982H30.8232V64.2388H27.8438V66.5811H30.2563V67.1216H27.8438V69.4595H30.8232V70H27.2769Z" fill="black"/>
<circle id="TYPE_IN" cx="22.5" cy="86" r="11" fill="#C4C4C4"/>
</g>
<g id="arp out">
<rect id="Rectangle 2" x="5.5" y="260" width="34" height="43" rx="4" fill="#131313"/>
<path id="TRIG OUT" d="M9.20654 266.239V272H8.63965V266.239H7.13672V265.698H10.7095V266.239H9.20654ZM14.5767 272L12.8672 269.311H12.0894V272H11.5225V265.698H13.522C13.7358 265.698 13.9365 265.739 14.124 265.821C14.3115 265.9 14.4756 266.01 14.6162 266.151C14.7568 266.292 14.8667 266.457 14.9458 266.647C15.0278 266.835 15.0688 267.036 15.0688 267.25V267.759C15.0688 267.973 15.0278 268.175 14.9458 268.366C14.8667 268.553 14.7568 268.717 14.6162 268.858C14.4756 268.999 14.3115 269.11 14.124 269.192C13.9365 269.271 13.7358 269.311 13.522 269.311L15.2314 272H14.5767ZM14.502 267.25C14.502 267.109 14.4756 266.979 14.4229 266.858C14.3701 266.735 14.2983 266.628 14.2075 266.538C14.1167 266.444 14.0098 266.371 13.8867 266.318C13.7666 266.265 13.6362 266.239 13.4956 266.239H12.0894V268.77H13.4956C13.6362 268.77 13.7666 268.744 13.8867 268.691C14.0098 268.638 14.1167 268.566 14.2075 268.476C14.2983 268.382 14.3701 268.275 14.4229 268.155C14.4756 268.032 14.502 267.9 14.502 267.759V267.25ZM16.3169 272V265.698H16.8838V272H16.3169ZM21.7837 272H21.6035L21.2739 271.495C21.1362 271.676 20.9692 271.821 20.7729 271.93C20.5767 272.035 20.3584 272.088 20.1182 272.088H19.7886C19.5747 272.088 19.3726 272.048 19.1821 271.969C18.9946 271.887 18.8306 271.776 18.6899 271.635C18.5493 271.495 18.438 271.331 18.356 271.143C18.2769 270.956 18.2373 270.755 18.2373 270.541V267.157C18.2373 266.943 18.2769 266.743 18.356 266.555C18.438 266.368 18.5493 266.204 18.6899 266.063C18.8306 265.922 18.9946 265.812 19.1821 265.733C19.3726 265.651 19.5747 265.61 19.7886 265.61H20.2368C20.4507 265.61 20.6514 265.651 20.8389 265.733C21.0264 265.812 21.1904 265.922 21.3311 266.063C21.4717 266.204 21.5815 266.368 21.6606 266.555C21.7427 266.743 21.7837 266.943 21.7837 267.157V267.412L21.2168 267.5V267.157C21.2168 267.017 21.1904 266.886 21.1377 266.766C21.085 266.643 21.0132 266.536 20.9224 266.445C20.8315 266.354 20.7246 266.283 20.6016 266.23C20.4814 266.177 20.3511 266.151 20.2104 266.151H19.8149C19.6743 266.151 19.5425 266.177 19.4194 266.23C19.2993 266.283 19.1924 266.354 19.0986 266.445C19.0078 266.536 18.936 266.643 18.8833 266.766C18.8306 266.886 18.8042 267.017 18.8042 267.157V270.541C18.8042 270.682 18.8306 270.813 18.8833 270.937C18.936 271.057 19.0078 271.164 19.0986 271.257C19.1924 271.348 19.2993 271.42 19.4194 271.473C19.5425 271.525 19.6743 271.552 19.8149 271.552H20.2104C20.3511 271.552 20.4814 271.525 20.6016 271.473C20.7246 271.42 20.8315 271.348 20.9224 271.257C21.0132 271.164 21.085 271.057 21.1377 270.937C21.1904 270.813 21.2168 270.682 21.2168 270.541V269.227H20.2104V268.687H21.7837V272ZM28.6655 270.541C28.6655 270.755 28.6245 270.956 28.5425 271.143C28.4634 271.331 28.3535 271.495 28.2129 271.635C28.0723 271.776 27.9082 271.887 27.7207 271.969C27.5332 272.048 27.3325 272.088 27.1187 272.088H26.6704C26.4565 272.088 26.2544 272.048 26.064 271.969C25.8765 271.887 25.7124 271.776 25.5718 271.635C25.4312 271.495 25.3198 271.331 25.2378 271.143C25.1587 270.956 25.1191 270.755 25.1191 270.541V267.157C25.1191 266.943 25.1587 266.743 25.2378 266.555C25.3198 266.368 25.4312 266.204 25.5718 266.063C25.7124 265.922 25.8765 265.812 26.064 265.733C26.2544 265.651 26.4565 265.61 26.6704 265.61H27.1187C27.3325 265.61 27.5332 265.651 27.7207 265.733C27.9082 265.812 28.0723 265.922 28.2129 266.063C28.3535 266.204 28.4634 266.368 28.5425 266.555C28.6245 266.743 28.6655 266.943 28.6655 267.157V270.541ZM28.0986 267.157C28.0986 267.017 28.0723 266.886 28.0195 266.766C27.9668 266.643 27.895 266.536 27.8042 266.445C27.7134 266.354 27.6064 266.283 27.4834 266.23C27.3633 266.177 27.2329 266.151 27.0923 266.151H26.6968C26.5562 266.151 26.4243 266.177 26.3013 266.23C26.1812 266.283 26.0742 266.354 25.9805 266.445C25.8896 266.536 25.8179 266.643 25.7651 266.766C25.7124 266.886 25.686 267.017 25.686 267.157V270.541C25.686 270.682 25.7124 270.813 25.7651 270.937C25.8179 271.057 25.8896 271.164 25.9805 271.257C26.0742 271.348 26.1812 271.42 26.3013 271.473C26.4243 271.525 26.5562 271.552 26.6968 271.552H27.0923C27.2329 271.552 27.3633 271.525 27.4834 271.473C27.6064 271.42 27.7134 271.348 27.8042 271.257C27.895 271.164 27.9668 271.057 28.0195 270.937C28.0723 270.813 28.0986 270.682 28.0986 270.541V267.157ZM33.4731 270.541C33.4731 270.755 33.4321 270.956 33.3501 271.143C33.271 271.331 33.1611 271.495 33.0205 271.635C32.8799 271.776 32.7158 271.887 32.5283 271.969C32.3408 272.048 32.1401 272.088 31.9263 272.088H31.478C31.2642 272.088 31.062 272.048 30.8716 271.969C30.6841 271.887 30.52 271.776 30.3794 271.635C30.2388 271.495 30.1274 271.331 30.0454 271.143C29.9663 270.956 29.9268 270.755 29.9268 270.541V265.698H30.4937V270.541C30.4937 270.682 30.52 270.813 30.5728 270.937C30.6255 271.057 30.6973 271.164 30.7881 271.257C30.8818 271.348 30.9888 271.42 31.1089 271.473C31.2319 271.525 31.3638 271.552 31.5044 271.552H31.8999C32.0405 271.552 32.1709 271.525 32.291 271.473C32.4141 271.42 32.521 271.348 32.6118 271.257C32.7026 271.164 32.7744 271.057 32.8271 270.937C32.8799 270.813 32.9062 270.682 32.9062 270.541V265.698H33.4731V270.541ZM36.356 266.239V272H35.7891V266.239H34.2861V265.698H37.8589V266.239H36.356Z" fill="white"/>
<circle id="ARP_TRIG_OUT" cx="22.5" cy="288" r="11" fill="#C4C4C4"/>
</g>
<g id="arp out_2">
<rect id="Rectangle 2_2" x="5.5" y="309" width="34" height="43" rx="4" fill="#131313"/>
<path id="CV OUT" d="M14.4141 319.541C14.4141 319.755 14.373 319.956 14.291 320.143C14.2119 320.331 14.1021 320.495 13.9614 320.635C13.8208 320.776 13.6567 320.887 13.4692 320.969C13.2817 321.048 13.0811 321.088 12.8672 321.088H12.4189C12.2051 321.088 12.0029 321.048 11.8125 320.969C11.625 320.887 11.4609 320.776 11.3203 320.635C11.1797 320.495 11.0684 320.331 10.9863 320.143C10.9072 319.956 10.8677 319.755 10.8677 319.541V316.157C10.8677 315.943 10.9072 315.743 10.9863 315.555C11.0684 315.368 11.1797 315.204 11.3203 315.063C11.4609 314.922 11.625 314.812 11.8125 314.733C12.0029 314.651 12.2051 314.61 12.4189 314.61H12.8672C13.0811 314.61 13.2817 314.651 13.4692 314.733C13.6567 314.812 13.8208 314.922 13.9614 315.063C14.1021 315.204 14.2119 315.368 14.291 315.555C14.373 315.743 14.4141 315.943 14.4141 316.157V316.412L13.8472 316.5V316.157C13.8472 316.017 13.8208 315.886 13.7681 315.766C13.7153 315.643 13.6436 315.536 13.5527 315.445C13.4619 315.354 13.355 315.283 13.2319 315.23C13.1118 315.177 12.9814 315.151 12.8408 315.151H12.4453C12.3047 315.151 12.1729 315.177 12.0498 315.23C11.9297 315.283 11.8228 315.354 11.729 315.445C11.6382 315.536 11.5664 315.643 11.5137 315.766C11.4609 315.886 11.4346 316.017 11.4346 316.157V319.541C11.4346 319.682 11.4609 319.813 11.5137 319.937C11.5664 320.057 11.6382 320.164 11.729 320.257C11.8228 320.348 11.9297 320.42 12.0498 320.473C12.1729 320.525 12.3047 320.552 12.4453 320.552H12.8408C12.9814 320.552 13.1118 320.525 13.2319 320.473C13.355 320.42 13.4619 320.348 13.5527 320.257C13.6436 320.164 13.7153 320.057 13.7681 319.937C13.8208 319.813 13.8472 319.682 13.8472 319.541V319.198L14.4141 319.291V319.541ZM17.0288 319.616L17.0464 319.849L17.064 319.616L18.4614 314.698H19.0459L17.1914 321H16.8926L15.0469 314.698H15.6357L17.0288 319.616ZM25.3828 319.541C25.3828 319.755 25.3418 319.956 25.2598 320.143C25.1807 320.331 25.0708 320.495 24.9302 320.635C24.7896 320.776 24.6255 320.887 24.438 320.969C24.2505 321.048 24.0498 321.088 23.8359 321.088H23.3877C23.1738 321.088 22.9717 321.048 22.7812 320.969C22.5938 320.887 22.4297 320.776 22.2891 320.635C22.1484 320.495 22.0371 320.331 21.9551 320.143C21.876 319.956 21.8364 319.755 21.8364 319.541V316.157C21.8364 315.943 21.876 315.743 21.9551 315.555C22.0371 315.368 22.1484 315.204 22.2891 315.063C22.4297 314.922 22.5938 314.812 22.7812 314.733C22.9717 314.651 23.1738 314.61 23.3877 314.61H23.8359C24.0498 314.61 24.2505 314.651 24.438 314.733C24.6255 314.812 24.7896 314.922 24.9302 315.063C25.0708 315.204 25.1807 315.368 25.2598 315.555C25.3418 315.743 25.3828 315.943 25.3828 316.157V319.541ZM24.8159 316.157C24.8159 316.017 24.7896 315.886 24.7368 315.766C24.6841 315.643 24.6123 315.536 24.5215 315.445C24.4307 315.354 24.3237 315.283 24.2007 315.23C24.0806 315.177 23.9502 315.151 23.8096 315.151H23.4141C23.2734 315.151 23.1416 315.177 23.0186 315.23C22.8984 315.283 22.7915 315.354 22.6978 315.445C22.6069 315.536 22.5352 315.643 22.4824 315.766C22.4297 315.886 22.4033 316.017 22.4033 316.157V319.541C22.4033 319.682 22.4297 319.813 22.4824 319.937C22.5352 320.057 22.6069 320.164 22.6978 320.257C22.7915 320.348 22.8984 320.42 23.0186 320.473C23.1416 320.525 23.2734 320.552 23.4141 320.552H23.8096C23.9502 320.552 24.0806 320.525 24.2007 320.473C24.3237 320.42 24.4307 320.348 24.5215 320.257C24.6123 320.164 24.6841 320.057 24.7368 319.937C24.7896 319.813 24.8159 319.682 24.8159 319.541V316.157ZM30.1904 319.541C30.1904 319.755 30.1494 319.956 30.0674 320.143C29.9883 320.331 29.8784 320.495 29.7378 320.635C29.5972 320.776 29.4331 320.887 29.2456 320.969C29.0581 321.048 28.8574 321.088 28.6436 321.088H28.1953C27.9814 321.088 27.7793 321.048 27.5889 320.969C27.4014 320.887 27.2373 320.776 27.0967 320.635C26.9561 320.495 26.8447 320.331 26.7627 320.143C26.6836 319.956 26.644 319.755 26.644 319.541V314.698H27.2109V319.541C27.2109 319.682 27.2373 319.813 27.29 319.937C27.3428 320.057 27.4146 320.164 27.5054 320.257C27.5991 320.348 27.7061 320.42 27.8262 320.473C27.9492 320.525 28.0811 320.552 28.2217 320.552H28.6172C28.7578 320.552 28.8882 320.525 29.0083 320.473C29.1313 320.42 29.2383 320.348 29.3291 320.257C29.4199 320.164 29.4917 320.057 29.5444 319.937C29.5972 319.813 29.6235 319.682 29.6235 319.541V314.698H30.1904V319.541ZM33.0732 315.239V321H32.5063V315.239H31.0034V314.698H34.5762V315.239H33.0732Z" fill="white"/>
<circle id="ARP_CV_OUT" cx="22.5" cy="337" r="11" fill="#C4C4C4"/>
</g>
</g>
<g id="Group 3">
<circle id="TYPE_PARAM" cx="22.5" cy="32" r="11" fill="#C4C4C4"/>
<g id="Group 2">
<path id="Star" d="M7.5 41L9.39372 44.3935L13.2063 45.1459L10.5641 47.9956L11.0267 51.8541L7.5 50.2218L3.97329 51.8541L4.43589 47.9956L1.79366 45.1459L5.60628 44.3935L7.5 41Z" fill="#C4C4C4"/>
<path id="Star_2" d="M37.5 41L39.3937 44.3935L43.2063 45.1459L40.5641 47.9956L41.0267 51.8541L37.5 50.2218L33.9733 51.8541L34.4359 47.9956L31.7937 45.1459L35.6063 44.3935L37.5 41Z" fill="#C4C4C4"/>
<path id="Star_3" d="M37.5 11L39.3937 14.3935L43.2063 15.1459L40.5641 17.9956L41.0267 21.8541L37.5 20.2218L33.9733 21.8541L34.4359 17.9956L31.7937 15.1459L35.6063 14.3935L37.5 11Z" fill="#C4C4C4"/>
<path id="Star_4" d="M7.5 11L9.39372 14.3935L13.2063 15.1459L10.5641 17.9956L11.0267 21.8541L7.5 20.2218L3.97329 21.8541L4.43589 17.9956L1.79366 15.1459L5.60628 14.3935L7.5 11Z" fill="#C4C4C4"/>
</g>
</g>
</g>
</svg>
