<svg xmlns="http://www.w3.org/2000/svg" width="15.24mm" height="128.5mm" viewBox="0 0 43.2 364.25"><title>PolyArp</title><g id="Layer_2" data-name="Layer 2"><rect width="43.2" height="364.25" fill="#fff"/></g><g id="Layer_4" data-name="Layer 4"><rect x="7.6" y="293.13" width="28" height="38" rx="4.26"/><circle cx="21.6" cy="317.13" r="11.84" fill="red"/><path d="M18.66,300.77a3.88,3.88,0,0,1-.13,1,2.91,2.91,0,0,1-.41.87,2,2,0,0,1-1.64.82,1.94,1.94,0,0,1-1-.23,2,2,0,0,1-.67-.6,2.72,2.72,0,0,1-.4-.86,3.88,3.88,0,0,1-.14-1V300a4,4,0,0,1,.06-.7,3.17,3.17,0,0,1,.18-.64,2.73,2.73,0,0,1,.3-.56,1.9,1.9,0,0,1,.41-.44,2,2,0,0,1,1.2-.39,2,2,0,0,1,1,.23,2.06,2.06,0,0,1,.68.6,2.71,2.71,0,0,1,.42.87,3.88,3.88,0,0,1,.13,1Zm-1-.78a3.91,3.91,0,0,0-.06-.68,1.93,1.93,0,0,0-.2-.6,1.26,1.26,0,0,0-.36-.43,1,1,0,0,0-.57-.16.94.94,0,0,0-.55.16,1.26,1.26,0,0,0-.36.43,2.21,2.21,0,0,0-.18.6c0,.23-.05.45-.06.68v.78c0,.23,0,.45.06.67a2.18,2.18,0,0,0,.19.61,1.06,1.06,0,0,0,.35.43.91.91,0,0,0,.56.17.93.93,0,0,0,.56-.17,1.11,1.11,0,0,0,.37-.43,2.22,2.22,0,0,0,.19-.6,3.91,3.91,0,0,0,.06-.68Z" transform="translate(0)" fill="#fff"/><path d="M23.6,297.36v4.05a2.46,2.46,0,0,1-.15.84,1.85,1.85,0,0,1-.41.66,1.65,1.65,0,0,1-.63.43,2.23,2.23,0,0,1-.83.15,2.18,2.18,0,0,1-.82-.15,1.81,1.81,0,0,1-.63-.43,1.87,1.87,0,0,1-.4-.65,2.34,2.34,0,0,1-.15-.85v-4.05h1v4.05a2.09,2.09,0,0,0,.08.51,1.14,1.14,0,0,0,.19.4.79.79,0,0,0,.31.26.94.94,0,0,0,.43.09,1,1,0,0,0,.44-.09,1,1,0,0,0,.32-.26,1.34,1.34,0,0,0,.19-.4,2.09,2.09,0,0,0,.07-.51v-4.05Z" transform="translate(0)" fill="#fff"/><path d="M29.05,298.18H27.2v5.22h-1v-5.22H24.36v-.82h4.69Z" transform="translate(0)" fill="#fff"/><rect x="7.6" y="252.13" width="28" height="38" rx="4.26" fill="none"/><circle cx="21.6" cy="276.13" r="11.84" fill="red"/><path d="M11.49,260h-1v2.36h-1v-6h1.91a3,3,0,0,1,.86.12,1.7,1.7,0,0,1,.67.34,1.53,1.53,0,0,1,.45.56,2,2,0,0,1,.08,1.36,1.59,1.59,0,0,1-.23.45,1.5,1.5,0,0,1-.35.36,2.51,2.51,0,0,1-.45.26l1.28,2.54v0H12.64Zm-1-.8h.92a1.64,1.64,0,0,0,.46-.07,1.25,1.25,0,0,0,.36-.2.9.9,0,0,0,.23-.32,1,1,0,0,0,.09-.44,1.25,1.25,0,0,0-.08-.45.85.85,0,0,0-.23-.32,1.07,1.07,0,0,0-.36-.21,2.21,2.21,0,0,0-.47-.07h-.92Z" transform="translate(0)"/><path d="M18.11,259.69H15.62v1.9h2.91v.81H14.62v-6H18.5v.82H15.62v1.71h2.49Z" transform="translate(0)"/><path d="M22.81,260.85a.74.74,0,0,0-.09-.38.89.89,0,0,0-.26-.29,1.47,1.47,0,0,0-.39-.22,4.65,4.65,0,0,0-.49-.17,5.89,5.89,0,0,1-.7-.26,2.58,2.58,0,0,1-.62-.38,1.82,1.82,0,0,1-.44-.52,1.34,1.34,0,0,1-.17-.68,1.45,1.45,0,0,1,.17-.7,1.63,1.63,0,0,1,.45-.53,2.27,2.27,0,0,1,.66-.33,2.45,2.45,0,0,1,.78-.12,2.38,2.38,0,0,1,.81.14,1.92,1.92,0,0,1,.67.38,1.71,1.71,0,0,1,.45.58,1.8,1.8,0,0,1,.17.75h-1a1.36,1.36,0,0,0-.1-.42,1,1,0,0,0-.21-.33,1.08,1.08,0,0,0-.34-.21,1.31,1.31,0,0,0-.46-.07,1.42,1.42,0,0,0-.42.06.87.87,0,0,0-.33.17.84.84,0,0,0-.22.27.78.78,0,0,0-.07.35.64.64,0,0,0,.1.37,1.26,1.26,0,0,0,.29.27,1.5,1.5,0,0,0,.4.2l.47.16a4.48,4.48,0,0,1,.72.28,2.54,2.54,0,0,1,.61.39,1.76,1.76,0,0,1,.41.53,1.6,1.6,0,0,1,.16.7,1.49,1.49,0,0,1-.17.71,1.72,1.72,0,0,1-.46.51,2.19,2.19,0,0,1-.67.32,2.88,2.88,0,0,1-.78.1,3.53,3.53,0,0,1-.56-.05,3.13,3.13,0,0,1-.52-.16,3,3,0,0,1-.47-.27,2.22,2.22,0,0,1-.38-.37,1.92,1.92,0,0,1-.25-.47,1.7,1.7,0,0,1-.09-.57h1a1.21,1.21,0,0,0,.12.48,1.06,1.06,0,0,0,.26.33,1.47,1.47,0,0,0,.39.21,2,2,0,0,0,.5.07,1.4,1.4,0,0,0,.41-.06,1,1,0,0,0,.35-.16.78.78,0,0,0,.22-.26A.68.68,0,0,0,22.81,260.85Z" transform="translate(0)"/><path d="M28.31,259.69H25.83v1.9h2.91v.81H24.82v-6h3.89v.82H25.83v1.71h2.48Z" transform="translate(0)"/><path d="M34.15,257.18H32.3v5.22h-1v-5.22H29.46v-.82h4.69Z" transform="translate(0)"/><rect x="7.6" y="211.13" width="28" height="38" rx="4.26" fill="none"/><circle cx="21.6" cy="235.13" r="11.84" fill="red"/><path d="M13.54,219.55a2.05,2.05,0,0,1-.21.79,1.84,1.84,0,0,1-.44.62,1.81,1.81,0,0,1-.64.39,2.41,2.41,0,0,1-.83.14,2,2,0,0,1-1.65-.79,2.64,2.64,0,0,1-.41-.86,3.92,3.92,0,0,1-.14-1.05V218a3.6,3.6,0,0,1,.15-1.05,2.74,2.74,0,0,1,.41-.86,2.27,2.27,0,0,1,.69-.58,2,2,0,0,1,.95-.21,2.54,2.54,0,0,1,.86.14,1.83,1.83,0,0,1,.64.4,2,2,0,0,1,.42.63,2.9,2.9,0,0,1,.2.82h-1a1.85,1.85,0,0,0-.11-.49,1.12,1.12,0,0,0-.21-.37.91.91,0,0,0-.33-.24,1.34,1.34,0,0,0-.48-.08,1,1,0,0,0-.56.15,1.08,1.08,0,0,0-.37.42,2,2,0,0,0-.2.6,4,4,0,0,0-.06.71v.83a4.35,4.35,0,0,0,.06.74,1.77,1.77,0,0,0,.2.6,1,1,0,0,0,.93.55,1.06,1.06,0,0,0,.8-.29,1.39,1.39,0,0,0,.32-.84Z" transform="translate(0)"/><path d="M15.66,220.59h2.88v.81H14.66v-6h1Z" transform="translate(0)"/><path d="M23.77,218.77a3.88,3.88,0,0,1-.14,1,2.69,2.69,0,0,1-.41.87,1.93,1.93,0,0,1-.68.59,2,2,0,0,1-1,.23,1.87,1.87,0,0,1-.94-.23,2.06,2.06,0,0,1-.68-.6,3,3,0,0,1-.4-.86,3.88,3.88,0,0,1-.13-1V218a4,4,0,0,1,.06-.7,3.17,3.17,0,0,1,.18-.64,2.29,2.29,0,0,1,.29-.56,2.19,2.19,0,0,1,.42-.44,1.72,1.72,0,0,1,.54-.28,2,2,0,0,1,.66-.11,1.94,1.94,0,0,1,1,.23,2,2,0,0,1,.69.6,2.69,2.69,0,0,1,.41.87,3.88,3.88,0,0,1,.14,1Zm-1-.78a5.23,5.23,0,0,0-.07-.68,2.22,2.22,0,0,0-.19-.6,1.18,1.18,0,0,0-.37-.43,1,1,0,0,0-.56-.16,1,1,0,0,0-.56.16,1.13,1.13,0,0,0-.35.43,2.22,2.22,0,0,0-.19.6,5.19,5.19,0,0,0-.05.68v.78a3.71,3.71,0,0,0,.06.67,1.89,1.89,0,0,0,.18.61,1.15,1.15,0,0,0,.35.43.93.93,0,0,0,.56.17.94.94,0,0,0,.57-.17,1.17,1.17,0,0,0,.36-.43,1.92,1.92,0,0,0,.19-.6,5.23,5.23,0,0,0,.07-.68Z" transform="translate(0)"/><path d="M28.85,219.55a2.25,2.25,0,0,1-.21.79,1.84,1.84,0,0,1-.44.62,1.81,1.81,0,0,1-.64.39,2.41,2.41,0,0,1-.83.14,2,2,0,0,1-1.65-.79,2.64,2.64,0,0,1-.41-.86,3.92,3.92,0,0,1-.14-1.05V218a4,4,0,0,1,.14-1.05,3,3,0,0,1,.42-.86,2.27,2.27,0,0,1,.69-.58,2,2,0,0,1,.95-.21,2.54,2.54,0,0,1,.86.14,1.92,1.92,0,0,1,.64.4,2,2,0,0,1,.42.63,2.9,2.9,0,0,1,.2.82h-1a1.85,1.85,0,0,0-.11-.49,1.12,1.12,0,0,0-.21-.37.91.91,0,0,0-.33-.24,1.34,1.34,0,0,0-.48-.08,1,1,0,0,0-.56.15,1.08,1.08,0,0,0-.37.42,2,2,0,0,0-.2.6,4,4,0,0,0-.06.71v.83a4.35,4.35,0,0,0,.06.74,1.77,1.77,0,0,0,.2.6,1,1,0,0,0,.93.55,1.06,1.06,0,0,0,.8-.29,1.39,1.39,0,0,0,.32-.84Z" transform="translate(0)"/><path d="M31.52,218.77l-.65.73v1.9h-1v-6h1v2.83l.56-.72L33,215.36h1.21l-2,2.65,2.16,3.39h-1.2Z" transform="translate(0)"/><rect x="7.6" y="170.13" width="28" height="38" rx="4.26" fill="none"/><circle cx="21.6" cy="194.13" r="11.84" fill="red"/><path d="M16.07,179.65a1.91,1.91,0,0,1-.36.33,2.4,2.4,0,0,1-.47.27,3.06,3.06,0,0,1-.56.17,3.22,3.22,0,0,1-.64.07,2.09,2.09,0,0,1-1.67-.8,2.59,2.59,0,0,1-.44-.86,3.69,3.69,0,0,1-.15-1.07V177a3.69,3.69,0,0,1,.15-1.07,2.71,2.71,0,0,1,.42-.87,2,2,0,0,1,.69-.58,1.88,1.88,0,0,1,.93-.22,2.69,2.69,0,0,1,.84.13,1.92,1.92,0,0,1,.64.37,2,2,0,0,1,.42.6,2.35,2.35,0,0,1,.19.78h-1a1.77,1.77,0,0,0-.11-.44,1.08,1.08,0,0,0-.21-.34.93.93,0,0,0-.33-.21,1.4,1.4,0,0,0-.44-.07.89.89,0,0,0-.54.16,1.19,1.19,0,0,0-.38.42,2.09,2.09,0,0,0-.22.61,3.38,3.38,0,0,0-.07.72v.76a3.38,3.38,0,0,0,.07.72,2.21,2.21,0,0,0,.23.61,1.34,1.34,0,0,0,.4.42,1.13,1.13,0,0,0,.59.16,1.42,1.42,0,0,0,.29,0,1.36,1.36,0,0,0,.29-.06,1.33,1.33,0,0,0,.24-.1.77.77,0,0,0,.19-.16v-1.21H14v-.78h2.07Z" transform="translate(0)"/><path d="M20.05,179H18.16l-.42,1.4h-1l2-6h.87l1.93,6h-1Zm-1.64-.85H19.8l-.69-2.37Z" transform="translate(0)"/><path d="M26.5,175.18H24.64v5.22h-1v-5.22H21.81v-.82H26.5Z" transform="translate(0)"/><path d="M30.86,177.69H28.38v1.9h2.91v.81H27.38v-6h3.88v.82H28.38v1.71h2.48Z" transform="translate(0)"/><rect x="7.6" y="129.13" width="28" height="38" rx="4.26" fill="none"/><circle cx="21.6" cy="153.13" r="11.84" fill="red"/><path d="M17.25,133.36h3.59v.82h-1.3v4.4h1.3v.82H17.25v-.82h1.28v-4.4H17.25Z" transform="translate(0)"/><path d="M26.13,139.4h-1l-2-4.16v4.16h-1v-6h1l2,4.14v-4.14h1Z" transform="translate(0)"/><rect x="7.6" y="61.13" width="28" height="38" rx="4.26" fill="none"/><circle cx="21.6" cy="85.13" r="11.84" fill="red"/><path d="M8,70.59h2.88v.81H7v-6H8Z" transform="translate(0)"/><path d="M15.55,68.69H13.07v1.9H16v.81H12.07v-6H16v.82H13.07v1.71h2.48Z" transform="translate(0)"/><path d="M21,71.4H20l-2-4.16V71.4H17v-6h1l2,4.14V65.36h1Z" transform="translate(0)"/><path d="M26.28,70.65a2.35,2.35,0,0,1-.37.33,2.06,2.06,0,0,1-.46.27,3.06,3.06,0,0,1-.56.17,3.22,3.22,0,0,1-.64.07,2.09,2.09,0,0,1-1.67-.8,2.59,2.59,0,0,1-.44-.86A3.69,3.69,0,0,1,22,68.76V68a3.69,3.69,0,0,1,.15-1.07,2.72,2.72,0,0,1,.43-.87,2,2,0,0,1,.69-.58,1.88,1.88,0,0,1,.93-.22,2.74,2.74,0,0,1,.84.13,1.87,1.87,0,0,1,.63.37,1.71,1.71,0,0,1,.42.6,2.35,2.35,0,0,1,.2.78h-1a1.77,1.77,0,0,0-.11-.44,1.33,1.33,0,0,0-.22-.34.89.89,0,0,0-.32-.21,1.4,1.4,0,0,0-.44-.07.9.9,0,0,0-.55.16,1.17,1.17,0,0,0-.37.42,1.84,1.84,0,0,0-.22.61A4.18,4.18,0,0,0,23,68v.76a4.18,4.18,0,0,0,.08.72,1.93,1.93,0,0,0,.23.61,1.34,1.34,0,0,0,.4.42,1.1,1.1,0,0,0,.59.16,1.46,1.46,0,0,0,.29,0,1.27,1.27,0,0,0,.28-.06,1.45,1.45,0,0,0,.25-.1.57.57,0,0,0,.18-.16V69.12H24.2v-.78h2.07Z" transform="translate(0)"/><path d="M31.6,66.18H29.75V71.4h-1V66.18H26.91v-.82H31.6Z" transform="translate(0)"/><path d="M36.34,71.4h-1V68.7H33.31v2.7h-1v-6h1v2.53h2.06V65.36h1Z" transform="translate(0)"/><rect x="7.6" y="20.13" width="28" height="38" rx="4.26" fill="none"/><circle cx="21.6" cy="44.13" r="11.84" fill="none" stroke="#000" stroke-miterlimit="10"/><path d="M13.19,24.36,13.94,27l.83-2.61H16v6h-.94V28.33l.06-2.65-.93,2.9h-.52l-.85-2.8.06,2.55V30.4H12v-6Z" transform="translate(0)"/><path d="M21.21,27.77a3.88,3.88,0,0,1-.13,1,2.69,2.69,0,0,1-.41.87,1.93,1.93,0,0,1-.68.59,2,2,0,0,1-1,.23,1.94,1.94,0,0,1-1-.23,2,2,0,0,1-.67-.6,2.72,2.72,0,0,1-.4-.86,3.88,3.88,0,0,1-.14-1V27a4,4,0,0,1,.06-.7,3.17,3.17,0,0,1,.18-.64,2.73,2.73,0,0,1,.3-.56,2.14,2.14,0,0,1,.41-.44,2,2,0,0,1,.54-.28,2,2,0,0,1,.67-.11,1.94,1.94,0,0,1,.95.23,2.2,2.2,0,0,1,.69.6,2.69,2.69,0,0,1,.41.87,3.88,3.88,0,0,1,.13,1Zm-1-.78a3.91,3.91,0,0,0-.06-.68,2.22,2.22,0,0,0-.19-.6,1.41,1.41,0,0,0-.37-.43,1,1,0,0,0-.56-.16,1,1,0,0,0-.56.16,1.26,1.26,0,0,0-.36.43,2.63,2.63,0,0,0-.18.6c0,.23-.05.45-.06.68v.78c0,.23,0,.45.06.67a2.18,2.18,0,0,0,.19.61,1.06,1.06,0,0,0,.35.43.93.93,0,0,0,.56.17.94.94,0,0,0,.57-.17,1.17,1.17,0,0,0,.36-.43,1.92,1.92,0,0,0,.19-.6,3.91,3.91,0,0,0,.06-.68Z" transform="translate(0)"/><path d="M22.17,30.4v-6h1.48a3.06,3.06,0,0,1,1.12.2,2.38,2.38,0,0,1,.84.58,2.44,2.44,0,0,1,.53.88,3.17,3.17,0,0,1,.19,1.14v.45a3.17,3.17,0,0,1-.19,1.14,2.53,2.53,0,0,1-.53.88,2.56,2.56,0,0,1-.83.57,3,3,0,0,1-1.1.2Zm1-5.24V29.6h.5a1.58,1.58,0,0,0,.71-.15,1.37,1.37,0,0,0,.52-.4,1.71,1.71,0,0,0,.3-.62,3,3,0,0,0,.11-.82v-.46a2.86,2.86,0,0,0-.11-.8,1.84,1.84,0,0,0-.3-.63,1.54,1.54,0,0,0-.53-.41,2,2,0,0,0-.73-.15Z" transform="translate(0)"/><path d="M30.86,27.69H28.38v1.9h2.91v.81H27.38v-6h3.88v.82H28.38v1.71h2.48Z" transform="translate(0)"/><circle cx="13.11" cy="52.61" r="2" fill="none" stroke="#000" stroke-miterlimit="10"/><circle cx="13.11" cy="35.64" r="2" fill="none" stroke="#000" stroke-miterlimit="10"/><circle cx="30.09" cy="35.64" r="2" fill="none" stroke="#000" stroke-miterlimit="10"/><circle cx="30.09" cy="52.61" r="2" fill="none" stroke="#000" stroke-miterlimit="10"/></g></svg>