<svg width="45" height="379" viewBox="0 0 45 379" fill="none" xmlns="http://www.w3.org/2000/svg">
<g id="PolyArp">
<rect width="45" height="379" fill="white"/>
<g id="arp out">
<rect id="Rectangle 2" x="5.5" y="309" width="34" height="43" rx="4" fill="#131313"/>
<path id="OUT" d="M19.8984 319.541C19.8984 319.755 19.8574 319.956 19.7754 320.143C19.6963 320.331 19.5864 320.495 19.4458 320.635C19.3052 320.776 19.1411 320.887 18.9536 320.969C18.7661 321.048 18.5654 321.088 18.3516 321.088H17.9033C17.6895 321.088 17.4873 321.048 17.2969 320.969C17.1094 320.887 16.9453 320.776 16.8047 320.635C16.6641 320.495 16.5527 320.331 16.4707 320.143C16.3916 319.956 16.3521 319.755 16.3521 319.541V316.157C16.3521 315.943 16.3916 315.743 16.4707 315.555C16.5527 315.368 16.6641 315.204 16.8047 315.063C16.9453 314.922 17.1094 314.812 17.2969 314.733C17.4873 314.651 17.6895 314.61 17.9033 314.61H18.3516C18.5654 314.61 18.7661 314.651 18.9536 314.733C19.1411 314.812 19.3052 314.922 19.4458 315.063C19.5864 315.204 19.6963 315.368 19.7754 315.555C19.8574 315.743 19.8984 315.943 19.8984 316.157V319.541ZM19.3315 316.157C19.3315 316.017 19.3052 315.886 19.2524 315.766C19.1997 315.643 19.1279 315.536 19.0371 315.445C18.9463 315.354 18.8394 315.283 18.7163 315.23C18.5962 315.177 18.4658 315.151 18.3252 315.151H17.9297C17.7891 315.151 17.6572 315.177 17.5342 315.23C17.4141 315.283 17.3071 315.354 17.2134 315.445C17.1226 315.536 17.0508 315.643 16.998 315.766C16.9453 315.886 16.9189 316.017 16.9189 316.157V319.541C16.9189 319.682 16.9453 319.813 16.998 319.937C17.0508 320.057 17.1226 320.164 17.2134 320.257C17.3071 320.348 17.4141 320.42 17.5342 320.473C17.6572 320.525 17.7891 320.552 17.9297 320.552H18.3252C18.4658 320.552 18.5962 320.525 18.7163 320.473C18.8394 320.42 18.9463 320.348 19.0371 320.257C19.1279 320.164 19.1997 320.057 19.2524 319.937C19.3052 319.813 19.3315 319.682 19.3315 319.541V316.157ZM24.7061 319.541C24.7061 319.755 24.665 319.956 24.583 320.143C24.5039 320.331 24.394 320.495 24.2534 320.635C24.1128 320.776 23.9487 320.887 23.7612 320.969C23.5737 321.048 23.373 321.088 23.1592 321.088H22.7109C22.4971 321.088 22.2949 321.048 22.1045 320.969C21.917 320.887 21.7529 320.776 21.6123 320.635C21.4717 320.495 21.3604 320.331 21.2783 320.143C21.1992 319.956 21.1597 319.755 21.1597 319.541V314.698H21.7266V319.541C21.7266 319.682 21.7529 319.813 21.8057 319.937C21.8584 320.057 21.9302 320.164 22.021 320.257C22.1147 320.348 22.2217 320.42 22.3418 320.473C22.4648 320.525 22.5967 320.552 22.7373 320.552H23.1328C23.2734 320.552 23.4038 320.525 23.5239 320.473C23.647 320.42 23.7539 320.348 23.8447 320.257C23.9355 320.164 24.0073 320.057 24.0601 319.937C24.1128 319.813 24.1392 319.682 24.1392 319.541V314.698H24.7061V319.541ZM27.5889 315.239V321H27.022V315.239H25.519V314.698H29.0918V315.239H27.5889Z" fill="white"/>
<circle id="ARP_OUT" cx="22.5" cy="337" r="11" fill="#C4C4C4"/>
</g>
<g id="Group">
<g id="gate in">
<path id="GATE" d="M18.0352 250H17.855L17.5254 249.495C17.3877 249.676 17.2207 249.821 17.0244 249.93C16.8281 250.035 16.6099 250.088 16.3696 250.088H16.04C15.8262 250.088 15.624 250.048 15.4336 249.969C15.2461 249.887 15.082 249.776 14.9414 249.635C14.8008 249.495 14.6895 249.331 14.6074 249.143C14.5283 248.956 14.4888 248.755 14.4888 248.541V245.157C14.4888 244.943 14.5283 244.743 14.6074 244.555C14.6895 244.368 14.8008 244.204 14.9414 244.063C15.082 243.922 15.2461 243.812 15.4336 243.733C15.624 243.651 15.8262 243.61 16.04 243.61H16.4883C16.7021 243.61 16.9028 243.651 17.0903 243.733C17.2778 243.812 17.4419 243.922 17.5825 244.063C17.7231 244.204 17.833 244.368 17.9121 244.555C17.9941 244.743 18.0352 244.943 18.0352 245.157V245.412L17.4683 245.5V245.157C17.4683 245.017 17.4419 244.886 17.3892 244.766C17.3364 244.643 17.2646 244.536 17.1738 244.445C17.083 244.354 16.9761 244.283 16.853 244.23C16.7329 244.177 16.6025 244.151 16.4619 244.151H16.0664C15.9258 244.151 15.7939 244.177 15.6709 244.23C15.5508 244.283 15.4438 244.354 15.3501 244.445C15.2593 244.536 15.1875 244.643 15.1348 244.766C15.082 244.886 15.0557 245.017 15.0557 245.157V248.541C15.0557 248.682 15.082 248.813 15.1348 248.937C15.1875 249.057 15.2593 249.164 15.3501 249.257C15.4438 249.348 15.5508 249.42 15.6709 249.473C15.7939 249.525 15.9258 249.552 16.0664 249.552H16.4619C16.6025 249.552 16.7329 249.525 16.853 249.473C16.9761 249.42 17.083 249.348 17.1738 249.257C17.2646 249.164 17.3364 249.057 17.3892 248.937C17.4419 248.813 17.4683 248.682 17.4683 248.541V247.227H16.4619V246.687H18.0352V250ZM21.7529 248.532H19.7578L19.3447 250H18.7559L20.6016 243.698H20.9004L22.7549 250H22.1704L21.7529 248.532ZM19.9116 247.992H21.6035L20.7729 245.087L20.7554 244.854L20.7378 245.087L19.9116 247.992ZM24.8203 244.239V250H24.2534V244.239H22.7505V243.698H26.3232V244.239H24.8203ZM27.2285 250V243.698H30.7749V244.239H27.7954V246.581H30.208V247.122H27.7954V249.459H30.7749V250H27.2285Z" fill="black"/>
<circle id="GATE_IN" cx="22.5" cy="266" r="11" fill="#C4C4C4"/>
</g>
<g id="reset in">
<path id="RESET" d="M14.8931 205L13.1836 202.311H12.4058V205H11.8389V198.698H13.8384C14.0522 198.698 14.2529 198.739 14.4404 198.821C14.6279 198.9 14.792 199.01 14.9326 199.151C15.0732 199.292 15.1831 199.457 15.2622 199.647C15.3442 199.835 15.3853 200.036 15.3853 200.25V200.759C15.3853 200.973 15.3442 201.175 15.2622 201.366C15.1831 201.553 15.0732 201.717 14.9326 201.858C14.792 201.999 14.6279 202.11 14.4404 202.192C14.2529 202.271 14.0522 202.311 13.8384 202.311L15.5479 205H14.8931ZM14.8184 200.25C14.8184 200.109 14.792 199.979 14.7393 199.858C14.6865 199.735 14.6147 199.628 14.5239 199.538C14.4331 199.444 14.3262 199.371 14.2031 199.318C14.083 199.265 13.9526 199.239 13.812 199.239H12.4058V201.77H13.812C13.9526 201.77 14.083 201.744 14.2031 201.691C14.3262 201.638 14.4331 201.566 14.5239 201.476C14.6147 201.382 14.6865 201.275 14.7393 201.155C14.792 201.032 14.8184 200.9 14.8184 200.759V200.25ZM16.6333 205V198.698H20.1797V199.239H17.2002V201.581H19.6128V202.122H17.2002V204.459H20.1797V205H16.6333ZM24.7192 203.541C24.7192 203.755 24.6753 203.956 24.5874 204.143C24.5024 204.331 24.3867 204.495 24.2402 204.635C24.0967 204.776 23.9282 204.887 23.7349 204.969C23.5444 205.048 23.3423 205.088 23.1284 205.088H22.6758C22.4619 205.088 22.2583 205.048 22.0649 204.969C21.8745 204.887 21.7061 204.776 21.5596 204.635C21.416 204.495 21.3003 204.331 21.2124 204.143C21.1274 203.956 21.085 203.755 21.085 203.541V203.291L21.6519 203.198V203.541C21.6519 203.682 21.6797 203.813 21.7354 203.937C21.7939 204.057 21.8716 204.164 21.9683 204.257C22.0649 204.348 22.1763 204.42 22.3022 204.473C22.4312 204.525 22.5659 204.552 22.7065 204.552H23.1021C23.2427 204.552 23.376 204.525 23.502 204.473C23.6279 204.42 23.7393 204.348 23.8359 204.257C23.9326 204.164 24.0088 204.057 24.0645 203.937C24.123 203.813 24.1523 203.682 24.1523 203.541V203.352C24.1523 203.135 24.1099 202.955 24.0249 202.812C23.9399 202.668 23.8271 202.546 23.6865 202.447C23.5459 202.344 23.3862 202.258 23.2075 202.188C23.0317 202.117 22.8501 202.047 22.6626 201.977C22.4751 201.906 22.292 201.829 22.1133 201.744C21.9375 201.659 21.7793 201.553 21.6387 201.427C21.498 201.298 21.3853 201.142 21.3003 200.957C21.2153 200.772 21.1729 200.545 21.1729 200.276V200.157C21.1729 199.943 21.2124 199.743 21.2915 199.555C21.3735 199.368 21.4849 199.204 21.6255 199.063C21.7661 198.922 21.9302 198.812 22.1177 198.733C22.3081 198.651 22.5103 198.61 22.7241 198.61H23.1284C23.3423 198.61 23.543 198.651 23.7305 198.733C23.918 198.812 24.082 198.922 24.2227 199.063C24.3633 199.204 24.4731 199.368 24.5522 199.555C24.6343 199.743 24.6753 199.943 24.6753 200.157V200.32L24.1084 200.412V200.157C24.1084 200.017 24.082 199.886 24.0293 199.766C23.9766 199.643 23.9048 199.536 23.814 199.445C23.7231 199.354 23.6162 199.283 23.4932 199.23C23.373 199.177 23.2427 199.151 23.1021 199.151H22.7505C22.6099 199.151 22.478 199.177 22.355 199.23C22.2349 199.283 22.1279 199.354 22.0342 199.445C21.9434 199.536 21.8716 199.643 21.8188 199.766C21.7661 199.886 21.7397 200.017 21.7397 200.157V200.276C21.7397 200.478 21.7822 200.648 21.8672 200.786C21.9521 200.923 22.0649 201.042 22.2056 201.142C22.3462 201.238 22.5044 201.323 22.6802 201.396C22.8589 201.467 23.042 201.54 23.2295 201.616C23.417 201.689 23.5986 201.771 23.7744 201.862C23.9531 201.95 24.1128 202.06 24.2534 202.192C24.394 202.321 24.5068 202.479 24.5918 202.667C24.6768 202.854 24.7192 203.083 24.7192 203.352V203.541ZM25.9409 205V198.698H29.4873V199.239H26.5078V201.581H28.9204V202.122H26.5078V204.459H29.4873V205H25.9409ZM32.1021 199.239V205H31.5352V199.239H30.0322V198.698H33.605V199.239H32.1021Z" fill="black"/>
<circle id="RESET_IN" cx="22.5" cy="221" r="11" fill="#C4C4C4"/>
</g>
<g id="clock in">
<path id="CLOCK" d="M15.3149 158.541C15.3149 158.755 15.2739 158.956 15.1919 159.143C15.1128 159.331 15.0029 159.495 14.8623 159.635C14.7217 159.776 14.5576 159.887 14.3701 159.969C14.1826 160.048 13.9819 160.088 13.7681 160.088H13.3198C13.106 160.088 12.9038 160.048 12.7134 159.969C12.5259 159.887 12.3618 159.776 12.2212 159.635C12.0806 159.495 11.9692 159.331 11.8872 159.143C11.8081 158.956 11.7686 158.755 11.7686 158.541V155.157C11.7686 154.943 11.8081 154.743 11.8872 154.555C11.9692 154.368 12.0806 154.204 12.2212 154.063C12.3618 153.922 12.5259 153.812 12.7134 153.733C12.9038 153.651 13.106 153.61 13.3198 153.61H13.7681C13.9819 153.61 14.1826 153.651 14.3701 153.733C14.5576 153.812 14.7217 153.922 14.8623 154.063C15.0029 154.204 15.1128 154.368 15.1919 154.555C15.2739 154.743 15.3149 154.943 15.3149 155.157V155.412L14.748 155.5V155.157C14.748 155.017 14.7217 154.886 14.6689 154.766C14.6162 154.643 14.5444 154.536 14.4536 154.445C14.3628 154.354 14.2559 154.283 14.1328 154.23C14.0127 154.177 13.8823 154.151 13.7417 154.151H13.3462C13.2056 154.151 13.0737 154.177 12.9507 154.23C12.8306 154.283 12.7236 154.354 12.6299 154.445C12.5391 154.536 12.4673 154.643 12.4146 154.766C12.3618 154.886 12.3354 155.017 12.3354 155.157V158.541C12.3354 158.682 12.3618 158.813 12.4146 158.937C12.4673 159.057 12.5391 159.164 12.6299 159.257C12.7236 159.348 12.8306 159.42 12.9507 159.473C13.0737 159.525 13.2056 159.552 13.3462 159.552H13.7417C13.8823 159.552 14.0127 159.525 14.1328 159.473C14.2559 159.42 14.3628 159.348 14.4536 159.257C14.5444 159.164 14.6162 159.057 14.6689 158.937C14.7217 158.813 14.748 158.682 14.748 158.541V158.198L15.3149 158.291V158.541ZM16.4883 160V153.698H17.0552V159.459H19.4678V160H16.4883ZM23.8228 158.541C23.8228 158.755 23.7817 158.956 23.6997 159.143C23.6206 159.331 23.5107 159.495 23.3701 159.635C23.2295 159.776 23.0654 159.887 22.8779 159.969C22.6904 160.048 22.4897 160.088 22.2759 160.088H21.8276C21.6138 160.088 21.4116 160.048 21.2212 159.969C21.0337 159.887 20.8696 159.776 20.729 159.635C20.5884 159.495 20.4771 159.331 20.395 159.143C20.3159 158.956 20.2764 158.755 20.2764 158.541V155.157C20.2764 154.943 20.3159 154.743 20.395 154.555C20.4771 154.368 20.5884 154.204 20.729 154.063C20.8696 153.922 21.0337 153.812 21.2212 153.733C21.4116 153.651 21.6138 153.61 21.8276 153.61H22.2759C22.4897 153.61 22.6904 153.651 22.8779 153.733C23.0654 153.812 23.2295 153.922 23.3701 154.063C23.5107 154.204 23.6206 154.368 23.6997 154.555C23.7817 154.743 23.8228 154.943 23.8228 155.157V158.541ZM23.2559 155.157C23.2559 155.017 23.2295 154.886 23.1768 154.766C23.124 154.643 23.0522 154.536 22.9614 154.445C22.8706 154.354 22.7637 154.283 22.6406 154.23C22.5205 154.177 22.3901 154.151 22.2495 154.151H21.854C21.7134 154.151 21.5815 154.177 21.4585 154.23C21.3384 154.283 21.2314 154.354 21.1377 154.445C21.0469 154.536 20.9751 154.643 20.9224 154.766C20.8696 154.886 20.8433 155.017 20.8433 155.157V158.541C20.8433 158.682 20.8696 158.813 20.9224 158.937C20.9751 159.057 21.0469 159.164 21.1377 159.257C21.2314 159.348 21.3384 159.42 21.4585 159.473C21.5815 159.525 21.7134 159.552 21.854 159.552H22.2495C22.3901 159.552 22.5205 159.525 22.6406 159.473C22.7637 159.42 22.8706 159.348 22.9614 159.257C23.0522 159.164 23.124 159.057 23.1768 158.937C23.2295 158.813 23.2559 158.682 23.2559 158.541V155.157ZM28.6304 158.541C28.6304 158.755 28.5894 158.956 28.5073 159.143C28.4282 159.331 28.3184 159.495 28.1777 159.635C28.0371 159.776 27.873 159.887 27.6855 159.969C27.498 160.048 27.2974 160.088 27.0835 160.088H26.6353C26.4214 160.088 26.2192 160.048 26.0288 159.969C25.8413 159.887 25.6772 159.776 25.5366 159.635C25.396 159.495 25.2847 159.331 25.2026 159.143C25.1235 158.956 25.084 158.755 25.084 158.541V155.157C25.084 154.943 25.1235 154.743 25.2026 154.555C25.2847 154.368 25.396 154.204 25.5366 154.063C25.6772 153.922 25.8413 153.812 26.0288 153.733C26.2192 153.651 26.4214 153.61 26.6353 153.61H27.0835C27.2974 153.61 27.498 153.651 27.6855 153.733C27.873 153.812 28.0371 153.922 28.1777 154.063C28.3184 154.204 28.4282 154.368 28.5073 154.555C28.5894 154.743 28.6304 154.943 28.6304 155.157V155.412L28.0635 155.5V155.157C28.0635 155.017 28.0371 154.886 27.9844 154.766C27.9316 154.643 27.8599 154.536 27.769 154.445C27.6782 154.354 27.5713 154.283 27.4482 154.23C27.3281 154.177 27.1978 154.151 27.0571 154.151H26.6616C26.521 154.151 26.3892 154.177 26.2661 154.23C26.146 154.283 26.0391 154.354 25.9453 154.445C25.8545 154.536 25.7827 154.643 25.73 154.766C25.6772 154.886 25.6509 155.017 25.6509 155.157V158.541C25.6509 158.682 25.6772 158.813 25.73 158.937C25.7827 159.057 25.8545 159.164 25.9453 159.257C26.0391 159.348 26.146 159.42 26.2661 159.473C26.3892 159.525 26.521 159.552 26.6616 159.552H27.0571C27.1978 159.552 27.3281 159.525 27.4482 159.473C27.5713 159.42 27.6782 159.348 27.769 159.257C27.8599 159.164 27.9316 159.057 27.9844 158.937C28.0371 158.813 28.0635 158.682 28.0635 158.541V158.198L28.6304 158.291V158.541ZM32.9722 160L30.5991 156.849L32.9722 153.698H33.6753L31.2539 156.849L33.6753 160H32.9722ZM29.896 160V153.698H30.4629V160H29.896Z" fill="black"/>
<circle id="CLOCK_IN" cx="22.5" cy="176" r="11" fill="#C4C4C4"/>
</g>
<g id="signal in">
<path id="IN" d="M19.7183 115V108.698H20.2852V115H19.7183ZM24.9785 115L22.3506 110.412L22.2979 110.14V115H21.731V108.698H22.0254L24.6533 113.291L24.7104 113.559V108.698H25.2773V115H24.9785Z" fill="black"/>
<circle id="SIG_IN" cx="22.5" cy="131" r="11" fill="#C4C4C4"/>
</g>
<g id="type in">
<path id="TYPE" d="M16.062 64.2388V70H15.4951V64.2388H13.9922V63.6982H17.5649V64.2388H16.062ZM20.127 66.9854V70H19.5601V66.9941L17.9297 63.6982H18.5405L19.8369 66.3174L21.1333 63.6982H21.7441L20.127 66.9854ZM26.1914 66.0317C26.1914 66.2456 26.1504 66.4463 26.0684 66.6338C25.9893 66.8213 25.8794 66.9854 25.7388 67.126C25.5981 67.2666 25.4326 67.3779 25.2422 67.46C25.0547 67.5391 24.854 67.5786 24.6401 67.5786H23.2119V70H22.645V63.6982H24.6401C24.854 63.6982 25.0547 63.7393 25.2422 63.8213C25.4326 63.9004 25.5981 64.0103 25.7388 64.1509C25.8794 64.2915 25.9893 64.457 26.0684 64.6475C26.1504 64.835 26.1914 65.0356 26.1914 65.2495V66.0317ZM25.6245 65.2495C25.6245 65.1089 25.5981 64.9785 25.5454 64.8584C25.4927 64.7354 25.4194 64.6284 25.3257 64.5376C25.2349 64.4438 25.1279 64.3706 25.0049 64.3179C24.8848 64.2651 24.7544 64.2388 24.6138 64.2388H23.2119V67.0381H24.6138C24.7544 67.0381 24.8848 67.0117 25.0049 66.959C25.1279 66.9062 25.2349 66.8345 25.3257 66.7437C25.4194 66.6528 25.4927 66.5474 25.5454 66.4272C25.5981 66.3042 25.6245 66.1724 25.6245 66.0317V65.2495ZM27.2769 70V63.6982H30.8232V64.2388H27.8438V66.5811H30.2563V67.1216H27.8438V69.4595H30.8232V70H27.2769Z" fill="black"/>
<circle id="TYPE_IN" cx="22.5" cy="86" r="11" fill="#C4C4C4"/>
</g>
</g>
<g id="Group 3">
<circle id="TYPE_PARAM" cx="22.5" cy="32" r="11" fill="#C4C4C4"/>
<g id="Group 2">
<path id="Star" d="M7.5 41L9.39372 44.3935L13.2063 45.1459L10.5641 47.9956L11.0267 51.8541L7.5 50.2218L3.97329 51.8541L4.43589 47.9956L1.79366 45.1459L5.60628 44.3935L7.5 41Z" fill="#C4C4C4"/>
<path id="Star_2" d="M37.5 41L39.3937 44.3935L43.2063 45.1459L40.5641 47.9956L41.0267 51.8541L37.5 50.2218L33.9733 51.8541L34.4359 47.9956L31.7937 45.1459L35.6063 44.3935L37.5 41Z" fill="#C4C4C4"/>
<path id="Star_3" d="M37.5 11L39.3937 14.3935L43.2063 15.1459L40.5641 17.9956L41.0267 21.8541L37.5 20.2218L33.9733 21.8541L34.4359 17.9956L31.7937 15.1459L35.6063 14.3935L37.5 11Z" fill="#C4C4C4"/>
<path id="Star_4" d="M7.5 11L9.39372 14.3935L13.2063 15.1459L10.5641 17.9956L11.0267 21.8541L7.5 20.2218L3.97329 21.8541L4.43589 17.9956L1.79366 15.1459L5.60628 14.3935L7.5 11Z" fill="#C4C4C4"/>
</g>
</g>
</g>
</svg>
