<svg xmlns="http://www.w3.org/2000/svg" width="15.24mm" height="128.41mm" viewBox="0 0 43.2 364"><title>PolyArp</title><rect width="43.2" height="364" style="fill:#fff"/><circle cx="21.44" cy="33.9" r="14.5" style="fill:#fff"/><path d="M21.6,19.9a14,14,0,1,1-14,14,14,14,0,0,1,14-14m0-1a15,15,0,1,0,15,15,15,15,0,0,0-15-15Z" transform="translate(-0.16)"/><circle cx="21.44" cy="77.7" r="14.5" style="fill:#fff"/><path d="M21.6,63.7a14,14,0,1,1-14,14,14,14,0,0,1,14-14m0-1a15,15,0,1,0,15,15,15,15,0,0,0-15-15Z" transform="translate(-0.16)"/><circle cx="21.44" cy="121.49" r="14.5" style="fill:#fff"/><path d="M21.6,107.49a14,14,0,1,1-14,14,14,14,0,0,1,14-14m0-1a15,15,0,1,0,15,15,15,15,0,0,0-15-15Z" transform="translate(-0.16)"/><rect x="6.94" y="150.12" width="29" height="20.19" style="fill:#fff"/><path d="M35.6,150.62v19.19H7.6V150.62h28m1-1H6.6v21.19h30V149.62Z" transform="translate(-0.16)"/><path d="M21.6,213.44a14.5,14.5,0,1,1,14.5-14.5A14.52,14.52,0,0,1,21.6,213.44Z" transform="translate(-0.16)" style="fill:#fff"/><path d="M21.6,184.94a14,14,0,1,1-14,14,14,14,0,0,1,14-14m0-1a15,15,0,1,0,15,15,15,15,0,0,0-15-15Z" transform="translate(-0.16)"/><circle cx="21.44" cy="242.74" r="14.5" style="fill:#fff"/><path d="M21.6,228.74a14,14,0,1,1-14,14,14,14,0,0,1,14-14m0-1a15,15,0,1,0,15,15,15,15,0,0,0-15-15Z" transform="translate(-0.16)"/><path d="M21.6,344.83a14.5,14.5,0,1,1,14.5-14.5A14.51,14.51,0,0,1,21.6,344.83Z" transform="translate(-0.16)" style="fill:#fff"/><path d="M21.6,316.33a14,14,0,1,1-14,14,14,14,0,0,1,14-14m0-1a15,15,0,1,0,15,15,15,15,0,0,0-15-15Z" transform="translate(-0.16)"/></svg>