<?xml version="1.0" encoding="UTF-8"?>
<svg width="390px" height="379px" viewBox="0 0 390 379" version="1.1" xmlns="http://www.w3.org/2000/svg" xmlns:xlink="http://www.w3.org/1999/xlink">
    <!-- Generator: Sketch 57.1 (83088) - https://sketch.com -->
    <title>Artboard</title>
    <desc>Created with Sketch.</desc>
    <g id="Artboard" stroke="none" stroke-width="1" fill="none" fill-rule="evenodd">
        <rect fill="#FFFFFF" x="0" y="0" width="390" height="379"></rect>
        <g id="Group" transform="translate(26.000000, 33.000000)" fill="#D8D8D8" stroke="#979797">
            <g id="Step">
                <g id="Group-2">
                    <rect id="Rectangle-Copy-7" x="0" y="28" width="22" height="186"></rect>
                    <rect id="Rectangle-Copy-8" x="0" y="0" width="22" height="18"></rect>
                </g>
            </g>
            <g id="Step" transform="translate(45.000000, 0.000000)">
                <g id="Group-2">
                    <rect id="Rectangle-Copy-7" x="0" y="28" width="22" height="186"></rect>
                    <rect id="Rectangle-Copy-8" x="0" y="0" width="22" height="18"></rect>
                </g>
            </g>
            <g id="Step" transform="translate(90.000000, 0.000000)">
                <g id="Group-2">
                    <rect id="Rectangle-Copy-7" x="0" y="28" width="22" height="186"></rect>
                    <rect id="Rectangle-Copy-8" x="0" y="0" width="22" height="18"></rect>
                </g>
            </g>
            <g id="Step" transform="translate(135.000000, 0.000000)">
                <g id="Group-2">
                    <rect id="Rectangle-Copy-7" x="0" y="28" width="22" height="186"></rect>
                    <rect id="Rectangle-Copy-8" x="0" y="0" width="22" height="18"></rect>
                </g>
            </g>
            <g id="Step" transform="translate(180.000000, 0.000000)">
                <g id="Group-2">
                    <rect id="Rectangle-Copy-7" x="0" y="28" width="22" height="186"></rect>
                    <rect id="Rectangle-Copy-8" x="0" y="0" width="22" height="18"></rect>
                </g>
            </g>
            <g id="Step" transform="translate(225.000000, 0.000000)">
                <g id="Group-2">
                    <rect id="Rectangle-Copy-7" x="0" y="28" width="22" height="186"></rect>
                    <rect id="Rectangle-Copy-8" x="0" y="0" width="22" height="18"></rect>
                </g>
            </g>
            <g id="Step" transform="translate(270.000000, 0.000000)">
                <g id="Group-2">
                    <rect id="Rectangle-Copy-7" x="0" y="28" width="22" height="186"></rect>
                    <rect id="Rectangle-Copy-8" x="0" y="0" width="22" height="18"></rect>
                </g>
            </g>
            <g id="Step" transform="translate(315.000000, 0.000000)">
                <g id="Group-2">
                    <rect id="Rectangle-Copy-7" x="0" y="28" width="22" height="186"></rect>
                    <rect id="Rectangle-Copy-8" x="0" y="0" width="22" height="18"></rect>
                </g>
            </g>
        </g>
    </g>
</svg>