<svg width="45" height="379" viewBox="0 0 45 379" fill="none" xmlns="http://www.w3.org/2000/svg">
<g id="TappableClockSource" clip-path="url(#clip0)">
<rect width="45" height="379" fill="white"/>
<g id="arp out">
<rect id="Rectangle 2" x="5.5" y="309" width="34" height="43" rx="4" fill="#131313"/>
<path id="out label" d="M19.8984 319.541C19.8984 319.755 19.8574 319.956 19.7754 320.143C19.6963 320.331 19.5864 320.495 19.4458 320.635C19.3052 320.776 19.1411 320.887 18.9536 320.969C18.7661 321.048 18.5654 321.088 18.3516 321.088H17.9033C17.6895 321.088 17.4873 321.048 17.2969 320.969C17.1094 320.887 16.9453 320.776 16.8047 320.635C16.6641 320.495 16.5527 320.331 16.4707 320.143C16.3916 319.956 16.3521 319.755 16.3521 319.541V316.157C16.3521 315.943 16.3916 315.743 16.4707 315.555C16.5527 315.368 16.6641 315.204 16.8047 315.063C16.9453 314.922 17.1094 314.812 17.2969 314.733C17.4873 314.651 17.6895 314.61 17.9033 314.61H18.3516C18.5654 314.61 18.7661 314.651 18.9536 314.733C19.1411 314.812 19.3052 314.922 19.4458 315.063C19.5864 315.204 19.6963 315.368 19.7754 315.555C19.8574 315.743 19.8984 315.943 19.8984 316.157V319.541ZM19.3315 316.157C19.3315 316.017 19.3052 315.886 19.2524 315.766C19.1997 315.643 19.1279 315.536 19.0371 315.445C18.9463 315.354 18.8394 315.283 18.7163 315.23C18.5962 315.177 18.4658 315.151 18.3252 315.151H17.9297C17.7891 315.151 17.6572 315.177 17.5342 315.23C17.4141 315.283 17.3071 315.354 17.2134 315.445C17.1226 315.536 17.0508 315.643 16.998 315.766C16.9453 315.886 16.9189 316.017 16.9189 316.157V319.541C16.9189 319.682 16.9453 319.813 16.998 319.937C17.0508 320.057 17.1226 320.164 17.2134 320.257C17.3071 320.348 17.4141 320.42 17.5342 320.473C17.6572 320.525 17.7891 320.552 17.9297 320.552H18.3252C18.4658 320.552 18.5962 320.525 18.7163 320.473C18.8394 320.42 18.9463 320.348 19.0371 320.257C19.1279 320.164 19.1997 320.057 19.2524 319.937C19.3052 319.813 19.3315 319.682 19.3315 319.541V316.157ZM24.7061 319.541C24.7061 319.755 24.665 319.956 24.583 320.143C24.5039 320.331 24.394 320.495 24.2534 320.635C24.1128 320.776 23.9487 320.887 23.7612 320.969C23.5737 321.048 23.373 321.088 23.1592 321.088H22.7109C22.4971 321.088 22.2949 321.048 22.1045 320.969C21.917 320.887 21.7529 320.776 21.6123 320.635C21.4717 320.495 21.3604 320.331 21.2783 320.143C21.1992 319.956 21.1597 319.755 21.1597 319.541V314.698H21.7266V319.541C21.7266 319.682 21.7529 319.813 21.8057 319.937C21.8584 320.057 21.9302 320.164 22.021 320.257C22.1147 320.348 22.2217 320.42 22.3418 320.473C22.4648 320.525 22.5967 320.552 22.7373 320.552H23.1328C23.2734 320.552 23.4038 320.525 23.5239 320.473C23.647 320.42 23.7539 320.348 23.8447 320.257C23.9355 320.164 24.0073 320.057 24.0601 319.937C24.1128 319.813 24.1392 319.682 24.1392 319.541V314.698H24.7061V319.541ZM27.5889 315.239V321H27.022V315.239H25.519V314.698H29.0918V315.239H27.5889Z" fill="white"/>
<circle id="MULT_DIV_OUT" cx="22.5" cy="337" r="11" fill="#C4C4C4"/>
</g>
<g id="Group">
<g id="gate in">
<path id="RESET" d="M14.8931 250L13.1836 247.311H12.4058V250H11.8389V243.698H13.8384C14.0522 243.698 14.2529 243.739 14.4404 243.821C14.6279 243.9 14.792 244.01 14.9326 244.151C15.0732 244.292 15.1831 244.457 15.2622 244.647C15.3442 244.835 15.3853 245.036 15.3853 245.25V245.759C15.3853 245.973 15.3442 246.175 15.2622 246.366C15.1831 246.553 15.0732 246.717 14.9326 246.858C14.792 246.999 14.6279 247.11 14.4404 247.192C14.2529 247.271 14.0522 247.311 13.8384 247.311L15.5479 250H14.8931ZM14.8184 245.25C14.8184 245.109 14.792 244.979 14.7393 244.858C14.6865 244.735 14.6147 244.628 14.5239 244.538C14.4331 244.444 14.3262 244.371 14.2031 244.318C14.083 244.265 13.9526 244.239 13.812 244.239H12.4058V246.77H13.812C13.9526 246.77 14.083 246.744 14.2031 246.691C14.3262 246.638 14.4331 246.566 14.5239 246.476C14.6147 246.382 14.6865 246.275 14.7393 246.155C14.792 246.032 14.8184 245.9 14.8184 245.759V245.25ZM16.6333 250V243.698H20.1797V244.239H17.2002V246.581H19.6128V247.122H17.2002V249.459H20.1797V250H16.6333ZM24.7192 248.541C24.7192 248.755 24.6753 248.956 24.5874 249.143C24.5024 249.331 24.3867 249.495 24.2402 249.635C24.0967 249.776 23.9282 249.887 23.7349 249.969C23.5444 250.048 23.3423 250.088 23.1284 250.088H22.6758C22.4619 250.088 22.2583 250.048 22.0649 249.969C21.8745 249.887 21.7061 249.776 21.5596 249.635C21.416 249.495 21.3003 249.331 21.2124 249.143C21.1274 248.956 21.085 248.755 21.085 248.541V248.291L21.6519 248.198V248.541C21.6519 248.682 21.6797 248.813 21.7354 248.937C21.7939 249.057 21.8716 249.164 21.9683 249.257C22.0649 249.348 22.1763 249.42 22.3022 249.473C22.4312 249.525 22.5659 249.552 22.7065 249.552H23.1021C23.2427 249.552 23.376 249.525 23.502 249.473C23.6279 249.42 23.7393 249.348 23.8359 249.257C23.9326 249.164 24.0088 249.057 24.0645 248.937C24.123 248.813 24.1523 248.682 24.1523 248.541V248.352C24.1523 248.135 24.1099 247.955 24.0249 247.812C23.9399 247.668 23.8271 247.546 23.6865 247.447C23.5459 247.344 23.3862 247.258 23.2075 247.188C23.0317 247.117 22.8501 247.047 22.6626 246.977C22.4751 246.906 22.292 246.829 22.1133 246.744C21.9375 246.659 21.7793 246.553 21.6387 246.427C21.498 246.298 21.3853 246.142 21.3003 245.957C21.2153 245.772 21.1729 245.545 21.1729 245.276V245.157C21.1729 244.943 21.2124 244.743 21.2915 244.555C21.3735 244.368 21.4849 244.204 21.6255 244.063C21.7661 243.922 21.9302 243.812 22.1177 243.733C22.3081 243.651 22.5103 243.61 22.7241 243.61H23.1284C23.3423 243.61 23.543 243.651 23.7305 243.733C23.918 243.812 24.082 243.922 24.2227 244.063C24.3633 244.204 24.4731 244.368 24.5522 244.555C24.6343 244.743 24.6753 244.943 24.6753 245.157V245.32L24.1084 245.412V245.157C24.1084 245.017 24.082 244.886 24.0293 244.766C23.9766 244.643 23.9048 244.536 23.814 244.445C23.7231 244.354 23.6162 244.283 23.4932 244.23C23.373 244.177 23.2427 244.151 23.1021 244.151H22.7505C22.6099 244.151 22.478 244.177 22.355 244.23C22.2349 244.283 22.1279 244.354 22.0342 244.445C21.9434 244.536 21.8716 244.643 21.8188 244.766C21.7661 244.886 21.7397 245.017 21.7397 245.157V245.276C21.7397 245.478 21.7822 245.648 21.8672 245.786C21.9521 245.923 22.0649 246.042 22.2056 246.142C22.3462 246.238 22.5044 246.323 22.6802 246.396C22.8589 246.467 23.042 246.54 23.2295 246.616C23.417 246.689 23.5986 246.771 23.7744 246.862C23.9531 246.95 24.1128 247.06 24.2534 247.192C24.394 247.321 24.5068 247.479 24.5918 247.667C24.6768 247.854 24.7192 248.083 24.7192 248.352V248.541ZM25.9409 250V243.698H29.4873V244.239H26.5078V246.581H28.9204V247.122H26.5078V249.459H29.4873V250H25.9409ZM32.1021 244.239V250H31.5352V244.239H30.0322V243.698H33.605V244.239H32.1021Z" fill="black"/>
<circle id="RESET_IN" cx="22.5" cy="266" r="11" fill="#C4C4C4"/>
</g>
<g id="reset in">
<circle id="MULT_DIV_IN" cx="22.5" cy="221" r="11" fill="#C4C4C4"/>
</g>
<g id="signal in">
<rect id="Rectangle 2_2" x="5.5" y="103" width="34" height="43" rx="4" fill="black"/>
<path id="TAP OUT" d="M10.7007 109.239V115H10.1338V109.239H8.63086V108.698H12.2036V109.239H10.7007ZM15.2007 113.532H13.2056L12.7925 115H12.2036L14.0493 108.698H14.3481L16.2026 115H15.6182L15.2007 113.532ZM13.3594 112.992H15.0513L14.2207 110.087L14.2031 109.854L14.1855 110.087L13.3594 112.992ZM20.5576 111.032C20.5576 111.246 20.5166 111.446 20.4346 111.634C20.3555 111.821 20.2456 111.985 20.105 112.126C19.9644 112.267 19.7988 112.378 19.6084 112.46C19.4209 112.539 19.2202 112.579 19.0063 112.579H17.5781V115H17.0112V108.698H19.0063C19.2202 108.698 19.4209 108.739 19.6084 108.821C19.7988 108.9 19.9644 109.01 20.105 109.151C20.2456 109.292 20.3555 109.457 20.4346 109.647C20.5166 109.835 20.5576 110.036 20.5576 110.25V111.032ZM19.9907 110.25C19.9907 110.109 19.9644 109.979 19.9116 109.858C19.8589 109.735 19.7856 109.628 19.6919 109.538C19.6011 109.444 19.4941 109.371 19.3711 109.318C19.251 109.265 19.1206 109.239 18.98 109.239H17.5781V112.038H18.98C19.1206 112.038 19.251 112.012 19.3711 111.959C19.4941 111.906 19.6011 111.834 19.6919 111.744C19.7856 111.653 19.8589 111.547 19.9116 111.427C19.9644 111.304 19.9907 111.172 19.9907 111.032V110.25ZM27.1714 113.541C27.1714 113.755 27.1304 113.956 27.0483 114.143C26.9692 114.331 26.8594 114.495 26.7188 114.635C26.5781 114.776 26.4141 114.887 26.2266 114.969C26.0391 115.048 25.8384 115.088 25.6245 115.088H25.1763C24.9624 115.088 24.7603 115.048 24.5698 114.969C24.3823 114.887 24.2183 114.776 24.0776 114.635C23.937 114.495 23.8257 114.331 23.7437 114.143C23.6646 113.956 23.625 113.755 23.625 113.541V110.157C23.625 109.943 23.6646 109.743 23.7437 109.555C23.8257 109.368 23.937 109.204 24.0776 109.063C24.2183 108.922 24.3823 108.812 24.5698 108.733C24.7603 108.651 24.9624 108.61 25.1763 108.61H25.6245C25.8384 108.61 26.0391 108.651 26.2266 108.733C26.4141 108.812 26.5781 108.922 26.7188 109.063C26.8594 109.204 26.9692 109.368 27.0483 109.555C27.1304 109.743 27.1714 109.943 27.1714 110.157V113.541ZM26.6045 110.157C26.6045 110.017 26.5781 109.886 26.5254 109.766C26.4727 109.643 26.4009 109.536 26.3101 109.445C26.2192 109.354 26.1123 109.283 25.9893 109.23C25.8691 109.177 25.7388 109.151 25.5981 109.151H25.2026C25.062 109.151 24.9302 109.177 24.8071 109.23C24.687 109.283 24.5801 109.354 24.4863 109.445C24.3955 109.536 24.3237 109.643 24.271 109.766C24.2183 109.886 24.1919 110.017 24.1919 110.157V113.541C24.1919 113.682 24.2183 113.813 24.271 113.937C24.3237 114.057 24.3955 114.164 24.4863 114.257C24.5801 114.348 24.687 114.42 24.8071 114.473C24.9302 114.525 25.062 114.552 25.2026 114.552H25.5981C25.7388 114.552 25.8691 114.525 25.9893 114.473C26.1123 114.42 26.2192 114.348 26.3101 114.257C26.4009 114.164 26.4727 114.057 26.5254 113.937C26.5781 113.813 26.6045 113.682 26.6045 113.541V110.157ZM31.979 113.541C31.979 113.755 31.938 113.956 31.856 114.143C31.7769 114.331 31.667 114.495 31.5264 114.635C31.3857 114.776 31.2217 114.887 31.0342 114.969C30.8467 115.048 30.646 115.088 30.4321 115.088H29.9839C29.77 115.088 29.5679 115.048 29.3774 114.969C29.1899 114.887 29.0259 114.776 28.8853 114.635C28.7446 114.495 28.6333 114.331 28.5513 114.143C28.4722 113.956 28.4326 113.755 28.4326 113.541V108.698H28.9995V113.541C28.9995 113.682 29.0259 113.813 29.0786 113.937C29.1313 114.057 29.2031 114.164 29.2939 114.257C29.3877 114.348 29.4946 114.42 29.6147 114.473C29.7378 114.525 29.8696 114.552 30.0103 114.552H30.4058C30.5464 114.552 30.6768 114.525 30.7969 114.473C30.9199 114.42 31.0269 114.348 31.1177 114.257C31.2085 114.164 31.2803 114.057 31.333 113.937C31.3857 113.813 31.4121 113.682 31.4121 113.541V108.698H31.979V113.541ZM34.8618 109.239V115H34.2949V109.239H32.792V108.698H36.3647V109.239H34.8618Z" fill="white"/>
<circle id="CLOCK_OUT" cx="22.5" cy="131" r="11" fill="black"/>
</g>
<g id="type in">
<circle id="CLOCK_IN" cx="22.5" cy="86" r="11" fill="#C4C4C4"/>
</g>
</g>
<g id="Group 3.2">
<circle id="TAP_PARAM" cx="22.5" cy="32" r="11" fill="#C4C4C4"/>
</g>
<circle id="MULT_DIV_PARAM" cx="22.5" cy="177" r="7" fill="#C4C4C4"/>
<rect id="Rectangle" x="20.5" y="48" width="4" height="21" fill="black"/>
<rect id="Rectangle_2" x="20.5" y="195" width="4" height="11" fill="black"/>
<g id="Group 4">
<path id="32" d="M12.4262 192.771C12.4262 192.89 12.4034 193.002 12.3578 193.106C12.3139 193.21 12.2528 193.301 12.1747 193.379C12.0966 193.457 12.0055 193.519 11.9013 193.565C11.7971 193.609 11.6856 193.631 11.5668 193.631H11.4179C11.2991 193.631 11.1868 193.609 11.081 193.565C10.9768 193.519 10.8857 193.457 10.8075 193.379C10.7294 193.301 10.6676 193.21 10.622 193.106C10.578 193.002 10.5561 192.89 10.5561 192.771V192.681L10.871 192.632V192.771C10.871 192.85 10.8857 192.923 10.915 192.991C10.9443 193.058 10.9841 193.117 11.0346 193.169C11.0867 193.22 11.1461 193.26 11.2128 193.289C11.2812 193.318 11.3544 193.333 11.4325 193.333H11.5522C11.6303 193.333 11.7027 193.318 11.7694 193.289C11.8378 193.26 11.8972 193.22 11.9477 193.169C11.9981 193.117 12.038 193.058 12.0673 192.991C12.0966 192.923 12.1112 192.85 12.1112 192.771V192.481C12.1112 192.403 12.0966 192.33 12.0673 192.264C12.038 192.195 11.9981 192.136 11.9477 192.085C11.8972 192.035 11.8378 191.995 11.7694 191.966C11.7027 191.936 11.6303 191.922 11.5522 191.922H11.3178V191.621H11.5522C11.6303 191.621 11.7027 191.607 11.7694 191.578C11.8378 191.548 11.8972 191.508 11.9477 191.458C11.9981 191.407 12.038 191.349 12.0673 191.282C12.0966 191.214 12.1112 191.141 12.1112 191.062V190.891C12.1112 190.813 12.0966 190.741 12.0673 190.674C12.038 190.606 11.9981 190.546 11.9477 190.496C11.8972 190.446 11.8378 190.406 11.7694 190.376C11.7027 190.347 11.6303 190.332 11.5522 190.332H11.4325C11.3544 190.332 11.2812 190.347 11.2128 190.376C11.1461 190.406 11.0867 190.446 11.0346 190.496C10.9841 190.546 10.9443 190.606 10.915 190.674C10.8857 190.741 10.871 190.813 10.871 190.891V191.033L10.5561 190.982V190.891C10.5561 190.773 10.578 190.661 10.622 190.557C10.6676 190.453 10.7294 190.362 10.8075 190.284C10.8857 190.205 10.9768 190.144 11.081 190.1C11.1868 190.055 11.2991 190.032 11.4179 190.032H11.5668C11.6856 190.032 11.7971 190.055 11.9013 190.1C12.0055 190.144 12.0966 190.205 12.1747 190.284C12.2528 190.362 12.3139 190.453 12.3578 190.557C12.4034 190.661 12.4262 190.773 12.4262 190.891V191.011C12.4262 191.094 12.4148 191.174 12.392 191.25C12.3708 191.325 12.3399 191.395 12.2992 191.46C12.2602 191.525 12.213 191.585 12.1576 191.639C12.1023 191.691 12.0404 191.735 11.9721 191.773C12.0404 191.809 12.1023 191.853 12.1576 191.907C12.213 191.959 12.2602 192.018 12.2992 192.083C12.3399 192.148 12.3708 192.219 12.392 192.295C12.4148 192.37 12.4262 192.449 12.4262 192.532V192.771ZM13.9301 190.332C13.852 190.332 13.7787 190.347 13.7104 190.376C13.6436 190.406 13.585 190.446 13.5346 190.496C13.4841 190.546 13.4443 190.606 13.415 190.674C13.3857 190.741 13.371 190.813 13.371 190.891V191.033L13.0561 190.982V190.891C13.0561 190.773 13.078 190.661 13.122 190.557C13.1676 190.453 13.2294 190.362 13.3075 190.284C13.3857 190.205 13.4768 190.144 13.581 190.1C13.6851 190.055 13.7966 190.032 13.9154 190.032H14.0644C14.1832 190.032 14.2947 190.053 14.3988 190.096C14.5046 190.138 14.5966 190.199 14.6747 190.279C14.7528 190.358 14.8139 190.454 14.8578 190.567C14.9034 190.677 14.9262 190.803 14.9262 190.943C14.9262 191.081 14.905 191.22 14.8627 191.36C14.822 191.5 14.7675 191.638 14.6991 191.773C14.6324 191.908 14.5551 192.039 14.4672 192.166C14.3809 192.293 14.2922 192.412 14.2011 192.525C13.9879 192.787 13.7462 193.039 13.476 193.282H14.9506V193.582H12.9804V193.333C13.2847 193.082 13.5566 192.823 13.7958 192.554C13.8984 192.439 13.9985 192.316 14.0961 192.185C14.1938 192.055 14.2808 191.922 14.3573 191.785C14.4338 191.647 14.4949 191.507 14.5404 191.365C14.5876 191.222 14.6112 191.081 14.6112 190.943C14.6112 190.84 14.5958 190.751 14.5649 190.674C14.5339 190.598 14.4924 190.534 14.4403 190.484C14.3883 190.433 14.328 190.396 14.2597 190.371C14.193 190.345 14.123 190.332 14.0497 190.332H13.9301Z" fill="black"/>
<path id="16" d="M6.26771 190.063V189.763H7.10267V186.862L6.26771 187.214V186.914L7.10267 186.562H7.41762V189.763H8.25258V190.063H6.26771ZM10.6427 189.252C10.6427 189.371 10.6199 189.483 10.5744 189.587C10.5304 189.691 10.4694 189.782 10.3912 189.86C10.3131 189.938 10.222 190 10.1178 190.046C10.0136 190.09 9.90215 190.112 9.78334 190.112H9.63197C9.51316 190.112 9.40167 190.09 9.2975 190.046C9.19333 190 9.10219 189.938 9.02406 189.86C8.94594 189.782 8.88409 189.691 8.83851 189.587C8.79457 189.483 8.7726 189.371 8.7726 189.252V187.373C8.7726 187.254 8.79457 187.142 8.83851 187.038C8.88409 186.934 8.94594 186.843 9.02406 186.765C9.10219 186.687 9.19333 186.625 9.2975 186.582C9.40167 186.536 9.51316 186.513 9.63197 186.513H9.78334C9.90215 186.513 10.0136 186.536 10.1178 186.582C10.222 186.625 10.3131 186.687 10.3912 186.765C10.4694 186.843 10.5304 186.934 10.5744 187.038C10.6199 187.142 10.6427 187.254 10.6427 187.373V187.463L10.3278 187.514V187.373C10.3278 187.294 10.3131 187.222 10.2838 187.155C10.2545 187.087 10.2138 187.027 10.1618 186.977C10.1113 186.927 10.0519 186.887 9.98353 186.857C9.9168 186.828 9.84437 186.813 9.76625 186.813H9.64662C9.5685 186.813 9.49525 186.828 9.42689 186.857C9.36016 186.887 9.30157 186.927 9.25111 186.977C9.20066 187.027 9.16078 187.087 9.13148 187.155C9.10219 187.222 9.08754 187.294 9.08754 187.373V188.244C9.16729 188.156 9.26251 188.086 9.37318 188.034C9.48549 187.98 9.60512 187.954 9.73207 187.954H9.78334C9.90215 187.954 10.0136 187.976 10.1178 188.022C10.222 188.066 10.3131 188.127 10.3912 188.205C10.4694 188.283 10.5304 188.374 10.5744 188.479C10.6199 188.583 10.6427 188.694 10.6427 188.813V189.252ZM10.3278 188.813C10.3278 188.735 10.3131 188.662 10.2838 188.596C10.2545 188.527 10.2138 188.468 10.1618 188.417C10.1113 188.367 10.0519 188.327 9.98353 188.298C9.9168 188.269 9.84437 188.254 9.76625 188.254H9.64662C9.5685 188.254 9.49525 188.269 9.42689 188.298C9.36016 188.327 9.30157 188.367 9.25111 188.417C9.20066 188.468 9.16078 188.527 9.13148 188.596C9.10219 188.662 9.08754 188.735 9.08754 188.813V189.252C9.08754 189.331 9.10219 189.404 9.13148 189.472C9.16078 189.539 9.20066 189.598 9.25111 189.65C9.30157 189.701 9.36016 189.741 9.42689 189.77C9.49525 189.799 9.5685 189.814 9.64662 189.814H9.76625C9.84437 189.814 9.9168 189.799 9.98353 189.77C10.0519 189.741 10.1113 189.701 10.1618 189.65C10.2138 189.598 10.2545 189.539 10.2838 189.472C10.3131 189.404 10.3278 189.331 10.3278 189.252V188.813Z" fill="black"/>
<path id="8" d="M7.42643 185.151C7.42643 185.27 7.40365 185.381 7.35807 185.486C7.31413 185.59 7.25309 185.681 7.17497 185.759C7.09684 185.837 7.0057 185.899 6.90153 185.945C6.79737 185.989 6.68587 186.01 6.56706 186.01H6.41813C6.29932 186.01 6.18701 185.989 6.08122 185.945C5.97705 185.899 5.88591 185.837 5.80778 185.759C5.72966 185.681 5.66781 185.59 5.62223 185.486C5.57829 185.381 5.55632 185.27 5.55632 185.151V184.861C5.55632 184.712 5.5905 184.577 5.65886 184.455C5.72884 184.332 5.81999 184.231 5.93229 184.153C5.81999 184.074 5.72884 183.974 5.65886 183.85C5.5905 183.726 5.55632 183.59 5.55632 183.442V183.271C5.55632 183.152 5.57829 183.041 5.62223 182.937C5.66781 182.833 5.72966 182.741 5.80778 182.663C5.88591 182.585 5.97705 182.524 6.08122 182.48C6.18701 182.435 6.29932 182.412 6.41813 182.412H6.56706C6.68587 182.412 6.79737 182.435 6.90153 182.48C7.0057 182.524 7.09684 182.585 7.17497 182.663C7.25309 182.741 7.31413 182.833 7.35807 182.937C7.40365 183.041 7.42643 183.152 7.42643 183.271V183.442C7.42643 183.59 7.39225 183.726 7.32389 183.85C7.25554 183.974 7.1652 184.074 7.0529 184.153C7.1652 184.231 7.25554 184.332 7.32389 184.455C7.39225 184.577 7.42643 184.712 7.42643 184.861V185.151ZM7.11149 183.271C7.11149 183.193 7.09684 183.121 7.06755 183.054C7.03825 182.986 6.99837 182.926 6.94792 182.876C6.89746 182.825 6.83806 182.785 6.7697 182.756C6.70296 182.727 6.63054 182.712 6.55241 182.712H6.43278C6.35466 182.712 6.28141 182.727 6.21306 182.756C6.14632 182.785 6.08692 182.825 6.03483 182.876C5.98438 182.926 5.9445 182.986 5.9152 183.054C5.88591 183.121 5.87126 183.193 5.87126 183.271V183.442C5.87126 183.52 5.88591 183.593 5.9152 183.662C5.9445 183.729 5.98438 183.787 6.03483 183.838C6.08692 183.888 6.14632 183.928 6.21306 183.957C6.28141 183.987 6.35466 184.001 6.43278 184.001H6.55241C6.63054 184.001 6.70296 183.987 6.7697 183.957C6.83806 183.928 6.89746 183.888 6.94792 183.838C6.99837 183.787 7.03825 183.729 7.06755 183.662C7.09684 183.593 7.11149 183.52 7.11149 183.442V183.271ZM7.11149 184.861C7.11149 184.782 7.09684 184.71 7.06755 184.643C7.03825 184.575 6.99837 184.516 6.94792 184.465C6.89746 184.415 6.83806 184.375 6.7697 184.345C6.70296 184.316 6.63054 184.301 6.55241 184.301H6.43278C6.35466 184.301 6.28141 184.316 6.21306 184.345C6.14632 184.375 6.08692 184.415 6.03483 184.465C5.98438 184.516 5.9445 184.575 5.9152 184.643C5.88591 184.71 5.87126 184.782 5.87126 184.861V185.151C5.87126 185.229 5.88591 185.302 5.9152 185.371C5.9445 185.438 5.98438 185.497 6.03483 185.549C6.08692 185.6 6.14632 185.639 6.21306 185.669C6.28141 185.698 6.35466 185.713 6.43278 185.713H6.55241C6.63054 185.713 6.70296 185.698 6.7697 185.669C6.83806 185.639 6.89746 185.6 6.94792 185.549C6.99837 185.497 7.03825 185.438 7.06755 185.371C7.09684 185.302 7.11149 185.229 7.11149 185.151V184.861Z" fill="black"/>
<path id="7" d="M4.80237 181.719H4.47278L5.78382 178.518H4.568V178.984H4.25305V178.218H6.172V178.369L4.80237 181.719Z" fill="black"/>
<path id="6" d="M5.86436 175.942C5.86436 176.061 5.84157 176.172 5.796 176.276C5.75205 176.38 5.69102 176.472 5.61289 176.55C5.53477 176.628 5.44362 176.69 5.33945 176.735C5.23529 176.779 5.1238 176.801 5.00498 176.801H4.85361C4.7348 176.801 4.62331 176.779 4.51914 176.735C4.41497 176.69 4.32383 176.628 4.2457 176.55C4.16758 176.472 4.10573 176.38 4.06016 176.276C4.01621 176.172 3.99424 176.061 3.99424 175.942V174.062C3.99424 173.943 4.01621 173.832 4.06016 173.727C4.10573 173.623 4.16758 173.532 4.2457 173.454C4.32383 173.376 4.41497 173.315 4.51914 173.271C4.62331 173.225 4.7348 173.202 4.85361 173.202H5.00498C5.1238 173.202 5.23529 173.225 5.33945 173.271C5.44362 173.315 5.53477 173.376 5.61289 173.454C5.69102 173.532 5.75205 173.623 5.796 173.727C5.84157 173.832 5.86436 173.943 5.86436 174.062V174.152L5.54941 174.203V174.062C5.54941 173.984 5.53477 173.911 5.50547 173.845C5.47617 173.776 5.43548 173.717 5.3834 173.666C5.33294 173.616 5.27353 173.576 5.20518 173.547C5.13844 173.517 5.06602 173.503 4.98789 173.503H4.86826C4.79014 173.503 4.71689 173.517 4.64853 173.547C4.5818 173.576 4.52321 173.616 4.47275 173.666C4.4223 173.717 4.38242 173.776 4.35312 173.845C4.32383 173.911 4.30918 173.984 4.30918 174.062V174.933C4.38893 174.846 4.48415 174.776 4.59482 174.723C4.70713 174.67 4.82676 174.643 4.95371 174.643H5.00498C5.1238 174.643 5.23529 174.666 5.33945 174.711C5.44362 174.755 5.53477 174.816 5.61289 174.894C5.69102 174.973 5.75205 175.064 5.796 175.168C5.84157 175.272 5.86436 175.383 5.86436 175.502V175.942ZM5.54941 175.502C5.54941 175.424 5.53477 175.352 5.50547 175.285C5.47617 175.217 5.43548 175.157 5.3834 175.107C5.33294 175.056 5.27353 175.016 5.20518 174.987C5.13844 174.958 5.06602 174.943 4.98789 174.943H4.86826C4.79014 174.943 4.71689 174.958 4.64853 174.987C4.5818 175.016 4.52321 175.056 4.47275 175.107C4.4223 175.157 4.38242 175.217 4.35312 175.285C4.32383 175.352 4.30918 175.424 4.30918 175.502V175.942C4.30918 176.02 4.32383 176.093 4.35312 176.161C4.38242 176.228 4.4223 176.288 4.47275 176.34C4.52321 176.39 4.5818 176.43 4.64853 176.459C4.71689 176.489 4.79014 176.503 4.86826 176.503H4.98789C5.06602 176.503 5.13844 176.489 5.20518 176.459C5.27353 176.43 5.33294 176.39 5.3834 176.34C5.43548 176.288 5.47617 176.228 5.50547 176.161C5.53477 176.093 5.54941 176.02 5.54941 175.942V175.502Z" fill="black"/>
<path id="5" d="M7.23374 171.068C7.23374 171.187 7.21095 171.298 7.16538 171.403C7.12143 171.507 7.0604 171.598 6.98227 171.676C6.90415 171.754 6.813 171.816 6.70883 171.862C6.60467 171.906 6.49318 171.928 6.37436 171.928H6.22543C6.10662 171.928 5.99431 171.906 5.88852 171.862C5.78435 171.816 5.69321 171.754 5.61508 171.676C5.53696 171.598 5.47511 171.507 5.42954 171.403C5.38559 171.298 5.36362 171.187 5.36362 171.068V171.014H5.67856V171.068C5.67856 171.146 5.69321 171.22 5.72251 171.288C5.7518 171.355 5.79168 171.414 5.84213 171.466C5.89422 171.517 5.95362 171.556 6.02036 171.586C6.08872 171.615 6.16196 171.63 6.24008 171.63H6.35971C6.43784 171.63 6.51027 171.615 6.577 171.586C6.64536 171.556 6.70476 171.517 6.75522 171.466C6.80568 171.414 6.84555 171.355 6.87485 171.288C6.90415 171.22 6.91879 171.146 6.91879 171.068V170.389C6.91879 170.311 6.90415 170.239 6.87485 170.172C6.84555 170.104 6.80568 170.044 6.75522 169.994C6.70476 169.942 6.64536 169.901 6.577 169.872C6.51027 169.843 6.43784 169.828 6.35971 169.828H6.24008C6.16196 169.828 6.08872 169.843 6.02036 169.872C5.95362 169.901 5.89422 169.942 5.84213 169.994C5.79168 170.044 5.7518 170.104 5.72251 170.172C5.69321 170.239 5.67856 170.311 5.67856 170.389H5.36362L5.56381 168.378H7.0604V168.678H5.85922L5.74448 169.755C5.81935 169.683 5.90642 169.628 6.00571 169.589C6.10499 169.548 6.2116 169.528 6.32553 169.528H6.37436C6.49318 169.528 6.60467 169.55 6.70883 169.596C6.813 169.64 6.90415 169.701 6.98227 169.779C7.0604 169.857 7.12143 169.949 7.16538 170.055C7.21095 170.159 7.23374 170.271 7.23374 170.389V171.068Z" fill="black"/>
<path id="4" d="M9.78894 166.214V166.819H9.474V166.214H8.06775V166.065L9.62293 163.318H9.78894V165.913H10.0892V166.214H9.78894ZM9.474 164.18L8.50965 165.913H9.474V164.18Z" fill="black"/>
<path id="3" d="M13.6615 163.3C13.6615 163.418 13.6387 163.53 13.5932 163.634C13.5492 163.738 13.4882 163.829 13.4101 163.907C13.3319 163.986 13.2408 164.047 13.1366 164.093C13.0325 164.137 12.921 164.159 12.8022 164.159H12.6532C12.5344 164.159 12.4221 164.137 12.3163 164.093C12.2122 164.047 12.121 163.986 12.0429 163.907C11.9648 163.829 11.9029 163.738 11.8573 163.634C11.8134 163.53 11.7914 163.418 11.7914 163.3V163.209L12.1064 163.16V163.3C12.1064 163.378 12.121 163.451 12.1503 163.519C12.1796 163.586 12.2195 163.645 12.2699 163.697C12.322 163.748 12.3814 163.788 12.4482 163.817C12.5165 163.846 12.5898 163.861 12.6679 163.861H12.7875C12.8656 163.861 12.9381 163.846 13.0048 163.817C13.0732 163.788 13.1326 163.748 13.183 163.697C13.2335 163.645 13.2734 163.586 13.3026 163.519C13.3319 163.451 13.3466 163.378 13.3466 163.3V163.009C13.3466 162.931 13.3319 162.858 13.3026 162.792C13.2734 162.723 13.2335 162.664 13.183 162.614C13.1326 162.563 13.0732 162.523 13.0048 162.494C12.9381 162.465 12.8656 162.45 12.7875 162.45H12.5531V162.15H12.7875C12.8656 162.15 12.9381 162.135 13.0048 162.106C13.0732 162.076 13.1326 162.037 13.183 161.986C13.2335 161.936 13.2734 161.877 13.3026 161.81C13.3319 161.742 13.3466 161.669 13.3466 161.591V161.42C13.3466 161.342 13.3319 161.269 13.3026 161.202C13.2734 161.134 13.2335 161.075 13.183 161.024C13.1326 160.974 13.0732 160.934 13.0048 160.905C12.9381 160.875 12.8656 160.861 12.7875 160.861H12.6679C12.5898 160.861 12.5165 160.875 12.4482 160.905C12.3814 160.934 12.322 160.974 12.2699 161.024C12.2195 161.075 12.1796 161.134 12.1503 161.202C12.121 161.269 12.1064 161.342 12.1064 161.42V161.561L11.7914 161.51V161.42C11.7914 161.301 11.8134 161.189 11.8573 161.085C11.9029 160.981 11.9648 160.89 12.0429 160.812C12.121 160.734 12.2122 160.673 12.3163 160.629C12.4221 160.583 12.5344 160.56 12.6532 160.56H12.8022C12.921 160.56 13.0325 160.583 13.1366 160.629C13.2408 160.673 13.3319 160.734 13.4101 160.812C13.4882 160.89 13.5492 160.981 13.5932 161.085C13.6387 161.189 13.6615 161.301 13.6615 161.42V161.539C13.6615 161.622 13.6501 161.702 13.6274 161.779C13.6062 161.853 13.5753 161.923 13.5346 161.989C13.4955 162.054 13.4483 162.113 13.393 162.167C13.3376 162.219 13.2758 162.264 13.2074 162.301C13.2758 162.337 13.3376 162.382 13.393 162.435C13.4483 162.487 13.4955 162.546 13.5346 162.611C13.5753 162.676 13.6062 162.747 13.6274 162.823C13.6501 162.898 13.6615 162.977 13.6615 163.06V163.3Z" fill="black"/>
<path id="2" d="M17.0721 158.603C16.994 158.603 16.9207 158.618 16.8524 158.647C16.7857 158.676 16.7271 158.716 16.6766 158.767C16.6262 158.817 16.5863 158.876 16.557 158.945C16.5277 159.012 16.513 159.084 16.513 159.162V159.304L16.1981 159.252V159.162C16.1981 159.043 16.2201 158.932 16.264 158.828C16.3096 158.724 16.3714 158.632 16.4496 158.554C16.5277 158.476 16.6188 158.415 16.723 158.371C16.8272 158.326 16.9387 158.303 17.0575 158.303H17.2064C17.3252 158.303 17.4367 158.324 17.5409 158.366C17.6467 158.409 17.7386 158.47 17.8167 158.549C17.8949 158.629 17.9559 158.725 17.9998 158.837C18.0454 158.948 18.0682 159.073 18.0682 159.213C18.0682 159.352 18.047 159.491 18.0047 159.631C17.964 159.771 17.9095 159.908 17.8412 160.043C17.7744 160.179 17.6971 160.31 17.6092 160.437C17.523 160.564 17.4343 160.683 17.3431 160.795C17.1299 161.057 16.8882 161.31 16.618 161.552H18.0926V161.853H16.1224V161.604C16.4268 161.353 16.6986 161.093 16.9378 160.825C17.0404 160.709 17.1405 160.586 17.2381 160.456C17.3358 160.326 17.4229 160.192 17.4994 160.056C17.5759 159.917 17.6369 159.777 17.6825 159.636C17.7297 159.493 17.7533 159.352 17.7533 159.213C17.7533 159.111 17.7378 159.021 17.7069 158.945C17.676 158.868 17.6345 158.805 17.5824 158.754C17.5303 158.704 17.4701 158.667 17.4017 158.642C17.335 158.616 17.265 158.603 17.1917 158.603H17.0721Z" fill="black"/>
<path id="16_2" d="M29.104 193.582V193.282H29.939V190.381L29.104 190.733V190.433L29.939 190.081H30.2539V193.282H31.0889V193.582H29.104ZM33.479 192.771C33.479 192.89 33.4563 193.002 33.4107 193.106C33.3667 193.21 33.3057 193.301 33.2276 193.379C33.1494 193.457 33.0583 193.519 32.9541 193.565C32.85 193.609 32.7385 193.631 32.6197 193.631H32.4683C32.3495 193.631 32.238 193.609 32.1338 193.565C32.0297 193.519 31.9385 193.457 31.8604 193.379C31.7823 193.301 31.7204 193.21 31.6748 193.106C31.6309 193.002 31.6089 192.89 31.6089 192.771V190.891C31.6089 190.773 31.6309 190.661 31.6748 190.557C31.7204 190.453 31.7823 190.362 31.8604 190.284C31.9385 190.205 32.0297 190.144 32.1338 190.1C32.238 190.055 32.3495 190.032 32.4683 190.032H32.6197C32.7385 190.032 32.85 190.055 32.9541 190.1C33.0583 190.144 33.1494 190.205 33.2276 190.284C33.3057 190.362 33.3667 190.453 33.4107 190.557C33.4563 190.661 33.479 190.773 33.479 190.891V190.982L33.1641 191.033V190.891C33.1641 190.813 33.1494 190.741 33.1202 190.674C33.0909 190.606 33.0502 190.546 32.9981 190.496C32.9476 190.446 32.8882 190.406 32.8199 190.376C32.7531 190.347 32.6807 190.332 32.6026 190.332H32.4829C32.4048 190.332 32.3316 190.347 32.2632 190.376C32.1965 190.406 32.1379 190.446 32.0874 190.496C32.037 190.546 31.9971 190.606 31.9678 190.674C31.9385 190.741 31.9239 190.813 31.9239 190.891V191.763C32.0036 191.675 32.0988 191.605 32.2095 191.553C32.3218 191.499 32.4414 191.473 32.5684 191.473H32.6197C32.7385 191.473 32.85 191.495 32.9541 191.541C33.0583 191.585 33.1494 191.646 33.2276 191.724C33.3057 191.802 33.3667 191.893 33.4107 191.997C33.4563 192.102 33.479 192.213 33.479 192.332V192.771ZM33.1641 192.332C33.1641 192.254 33.1494 192.181 33.1202 192.115C33.0909 192.046 33.0502 191.987 32.9981 191.936C32.9476 191.886 32.8882 191.846 32.8199 191.817C32.7531 191.787 32.6807 191.773 32.6026 191.773H32.4829C32.4048 191.773 32.3316 191.787 32.2632 191.817C32.1965 191.846 32.1379 191.886 32.0874 191.936C32.037 191.987 31.9971 192.046 31.9678 192.115C31.9385 192.181 31.9239 192.254 31.9239 192.332V192.771C31.9239 192.85 31.9385 192.923 31.9678 192.991C31.9971 193.058 32.037 193.117 32.0874 193.169C32.1379 193.22 32.1965 193.26 32.2632 193.289C32.3316 193.318 32.4048 193.333 32.4829 193.333H32.6026C32.6807 193.333 32.7531 193.318 32.8199 193.289C32.8882 193.26 32.9476 193.22 32.9981 193.169C33.0502 193.117 33.0909 193.058 33.1202 192.991C33.1494 192.923 33.1641 192.85 33.1641 192.771V192.332Z" fill="black"/>
<path id="12" d="M33.5557 190.063V189.763H34.3907V186.862L33.5557 187.214V186.914L34.3907 186.562H34.7056V189.763H35.5406V190.063H33.5557ZM36.8931 186.813C36.815 186.813 36.7417 186.828 36.6734 186.857C36.6066 186.887 36.5481 186.927 36.4976 186.977C36.4471 187.027 36.4073 187.087 36.378 187.155C36.3487 187.222 36.334 187.294 36.334 187.373V187.514L36.0191 187.463V187.373C36.0191 187.254 36.0411 187.142 36.085 187.038C36.1306 186.934 36.1924 186.843 36.2705 186.765C36.3487 186.687 36.4398 186.625 36.544 186.582C36.6481 186.536 36.7596 186.513 36.8785 186.513H37.0274C37.1462 186.513 37.2577 186.534 37.3619 186.577C37.4676 186.619 37.5596 186.68 37.6377 186.76C37.7159 186.84 37.7769 186.936 37.8208 187.048C37.8664 187.159 37.8892 187.284 37.8892 187.424C37.8892 187.562 37.868 187.701 37.8257 187.841C37.785 187.981 37.7305 188.119 37.6621 188.254C37.5954 188.389 37.5181 188.52 37.4302 188.647C37.3439 188.774 37.2552 188.894 37.1641 189.006C36.9509 189.268 36.7092 189.52 36.439 189.763H37.9136V190.063H35.9434V189.814C36.2478 189.563 36.5196 189.304 36.7588 189.035C36.8614 188.92 36.9615 188.797 37.0591 188.666C37.1568 188.536 37.2439 188.403 37.3203 188.266C37.3968 188.128 37.4579 187.988 37.5035 187.846C37.5507 187.703 37.5743 187.562 37.5743 187.424C37.5743 187.321 37.5588 187.232 37.5279 187.155C37.4969 187.079 37.4554 187.015 37.4034 186.965C37.3513 186.914 37.2911 186.877 37.2227 186.853C37.156 186.826 37.086 186.813 37.0127 186.813H36.8931Z" fill="black"/>
<path id="8_2" d="M38.384 185.151C38.384 185.27 38.3612 185.381 38.3156 185.486C38.2717 185.59 38.2106 185.681 38.1325 185.759C38.0544 185.837 37.9632 185.899 37.8591 185.945C37.7549 185.989 37.6434 186.01 37.5246 186.01H37.3757C37.2568 186.01 37.1445 185.989 37.0387 185.945C36.9346 185.899 36.8434 185.837 36.7653 185.759C36.6872 185.681 36.6253 185.59 36.5798 185.486C36.5358 185.381 36.5138 185.27 36.5138 185.151V184.861C36.5138 184.712 36.548 184.577 36.6164 184.455C36.6864 184.332 36.7775 184.231 36.8898 184.153C36.7775 184.074 36.6864 183.974 36.6164 183.85C36.548 183.726 36.5138 183.59 36.5138 183.442V183.271C36.5138 183.152 36.5358 183.041 36.5798 182.937C36.6253 182.833 36.6872 182.741 36.7653 182.663C36.8434 182.585 36.9346 182.524 37.0387 182.48C37.1445 182.435 37.2568 182.412 37.3757 182.412H37.5246C37.6434 182.412 37.7549 182.435 37.8591 182.48C37.9632 182.524 38.0544 182.585 38.1325 182.663C38.2106 182.741 38.2717 182.833 38.3156 182.937C38.3612 183.041 38.384 183.152 38.384 183.271V183.442C38.384 183.59 38.3498 183.726 38.2814 183.85C38.2131 183.974 38.1227 184.074 38.0104 184.153C38.1227 184.231 38.2131 184.332 38.2814 184.455C38.3498 184.577 38.384 184.712 38.384 184.861V185.151ZM38.069 183.271C38.069 183.193 38.0544 183.121 38.0251 183.054C37.9958 182.986 37.9559 182.926 37.9054 182.876C37.855 182.825 37.7956 182.785 37.7272 182.756C37.6605 182.727 37.5881 182.712 37.5099 182.712H37.3903C37.3122 182.712 37.2389 182.727 37.1706 182.756C37.1038 182.785 37.0444 182.825 36.9924 182.876C36.9419 182.926 36.902 182.986 36.8727 183.054C36.8434 183.121 36.8288 183.193 36.8288 183.271V183.442C36.8288 183.52 36.8434 183.593 36.8727 183.662C36.902 183.729 36.9419 183.787 36.9924 183.838C37.0444 183.888 37.1038 183.928 37.1706 183.957C37.2389 183.987 37.3122 184.001 37.3903 184.001H37.5099C37.5881 184.001 37.6605 183.987 37.7272 183.957C37.7956 183.928 37.855 183.888 37.9054 183.838C37.9559 183.787 37.9958 183.729 38.0251 183.662C38.0544 183.593 38.069 183.52 38.069 183.442V183.271ZM38.069 184.861C38.069 184.782 38.0544 184.71 38.0251 184.643C37.9958 184.575 37.9559 184.516 37.9054 184.465C37.855 184.415 37.7956 184.375 37.7272 184.345C37.6605 184.316 37.5881 184.301 37.5099 184.301H37.3903C37.3122 184.301 37.2389 184.316 37.1706 184.345C37.1038 184.375 37.0444 184.415 36.9924 184.465C36.9419 184.516 36.902 184.575 36.8727 184.643C36.8434 184.71 36.8288 184.782 36.8288 184.861V185.151C36.8288 185.229 36.8434 185.302 36.8727 185.371C36.902 185.438 36.9419 185.497 36.9924 185.549C37.0444 185.6 37.1038 185.639 37.1706 185.669C37.2389 185.698 37.3122 185.713 37.3903 185.713H37.5099C37.5881 185.713 37.6605 185.698 37.7272 185.669C37.7956 185.639 37.855 185.6 37.9054 185.549C37.9559 185.497 37.9958 185.438 38.0251 185.371C38.0544 185.302 38.069 185.229 38.069 185.151V184.861Z" fill="black"/>
<path id="7_2" d="M38.5984 181.719H38.2688L39.5798 178.518H38.364V178.984H38.049V178.218H39.968V178.369L38.5984 181.719Z" fill="black"/>
<path id="6_2" d="M40.0486 175.942C40.0486 176.061 40.0258 176.172 39.9802 176.276C39.9363 176.38 39.8752 176.472 39.7971 176.55C39.719 176.628 39.6278 176.69 39.5237 176.735C39.4195 176.779 39.308 176.801 39.1892 176.801H39.0378C38.919 176.801 38.8075 176.779 38.7033 176.735C38.5992 176.69 38.508 176.628 38.4299 176.55C38.3518 176.472 38.2899 176.38 38.2444 176.276C38.2004 176.172 38.1784 176.061 38.1784 175.942V174.062C38.1784 173.943 38.2004 173.832 38.2444 173.727C38.2899 173.623 38.3518 173.532 38.4299 173.454C38.508 173.376 38.5992 173.315 38.7033 173.271C38.8075 173.225 38.919 173.202 39.0378 173.202H39.1892C39.308 173.202 39.4195 173.225 39.5237 173.271C39.6278 173.315 39.719 173.376 39.7971 173.454C39.8752 173.532 39.9363 173.623 39.9802 173.727C40.0258 173.832 40.0486 173.943 40.0486 174.062V174.152L39.7336 174.203V174.062C39.7336 173.984 39.719 173.911 39.6897 173.845C39.6604 173.776 39.6197 173.717 39.5676 173.666C39.5171 173.616 39.4577 173.576 39.3894 173.547C39.3226 173.517 39.2502 173.503 39.1721 173.503H39.0525C38.9743 173.503 38.9011 173.517 38.8327 173.547C38.766 173.576 38.7074 173.616 38.657 173.666C38.6065 173.717 38.5666 173.776 38.5373 173.845C38.508 173.911 38.4934 173.984 38.4934 174.062V174.933C38.5731 174.846 38.6684 174.776 38.779 174.723C38.8913 174.67 39.011 174.643 39.1379 174.643H39.1892C39.308 174.643 39.4195 174.666 39.5237 174.711C39.6278 174.755 39.719 174.816 39.7971 174.894C39.8752 174.973 39.9363 175.064 39.9802 175.168C40.0258 175.272 40.0486 175.383 40.0486 175.502V175.942ZM39.7336 175.502C39.7336 175.424 39.719 175.352 39.6897 175.285C39.6604 175.217 39.6197 175.157 39.5676 175.107C39.5171 175.056 39.4577 175.016 39.3894 174.987C39.3226 174.958 39.2502 174.943 39.1721 174.943H39.0525C38.9743 174.943 38.9011 174.958 38.8327 174.987C38.766 175.016 38.7074 175.056 38.657 175.107C38.6065 175.157 38.5666 175.217 38.5373 175.285C38.508 175.352 38.4934 175.424 38.4934 175.502V175.942C38.4934 176.02 38.508 176.093 38.5373 176.161C38.5666 176.228 38.6065 176.288 38.657 176.34C38.7074 176.39 38.766 176.43 38.8327 176.459C38.9011 176.489 38.9743 176.503 39.0525 176.503H39.1721C39.2502 176.503 39.3226 176.489 39.3894 176.459C39.4577 176.43 39.5171 176.39 39.5676 176.34C39.6197 176.288 39.6604 176.228 39.6897 176.161C39.719 176.093 39.7336 176.02 39.7336 175.942V175.502Z" fill="black"/>
<path id="5_2" d="M38.5766 171.068C38.5766 171.187 38.5539 171.298 38.5083 171.403C38.4643 171.507 38.4033 171.598 38.3252 171.676C38.2471 171.754 38.1559 171.816 38.0517 171.862C37.9476 171.906 37.8361 171.928 37.7173 171.928L37.5683 171.928C37.4495 171.928 37.3372 171.906 37.2314 171.862C37.1273 171.816 37.0361 171.754 36.958 171.676C36.8799 171.598 36.818 171.507 36.7724 171.403C36.7285 171.298 36.7065 171.187 36.7065 171.068L36.7065 171.014L37.0215 171.014L37.0215 171.068C37.0215 171.146 37.0361 171.22 37.0654 171.288C37.0947 171.355 37.1346 171.414 37.185 171.466C37.2371 171.517 37.2965 171.556 37.3633 171.586C37.4316 171.615 37.5049 171.63 37.583 171.63L37.7026 171.63C37.7807 171.63 37.8532 171.615 37.9199 171.586C37.9883 171.556 38.0477 171.517 38.0981 171.466C38.1486 171.414 38.1885 171.355 38.2178 171.288C38.2471 171.22 38.2617 171.146 38.2617 171.068L38.2617 170.389C38.2617 170.311 38.2471 170.239 38.2178 170.172C38.1885 170.104 38.1486 170.044 38.0981 169.994C38.0477 169.942 37.9883 169.901 37.9199 169.872C37.8532 169.843 37.7807 169.828 37.7026 169.828L37.583 169.828C37.5049 169.828 37.4316 169.843 37.3633 169.872C37.2965 169.901 37.2371 169.942 37.185 169.994C37.1346 170.044 37.0947 170.104 37.0654 170.172C37.0361 170.239 37.0215 170.311 37.0215 170.389L36.7065 170.389L36.9067 168.378L38.4033 168.378L38.4033 168.678L37.2021 168.678L37.0874 169.755C37.1623 169.683 37.2493 169.628 37.3486 169.589C37.4479 169.548 37.5545 169.528 37.6684 169.528L37.7173 169.528C37.8361 169.528 37.9476 169.55 38.0517 169.596C38.1559 169.64 38.2471 169.701 38.3252 169.779C38.4033 169.857 38.4643 169.949 38.5083 170.055C38.5539 170.159 38.5766 170.271 38.5766 170.389L38.5766 171.068Z" fill="black"/>
<path id="4_2" d="M35.3769 166.214V166.819H35.062V166.214H33.6557V166.065L35.2109 163.318H35.3769V165.913H35.6772V166.214H35.3769ZM35.062 164.18L34.0976 165.913H35.062V164.18Z" fill="black"/>
<path id="3_2" d="M32.1488 163.3C32.1488 163.418 32.1261 163.53 32.0805 163.634C32.0365 163.738 31.9755 163.829 31.8974 163.907C31.8192 163.986 31.7281 164.047 31.6239 164.093C31.5198 164.137 31.4083 164.159 31.2895 164.159H31.1405C31.0217 164.159 30.9094 164.137 30.8036 164.093C30.6995 164.047 30.6083 163.986 30.5302 163.907C30.4521 163.829 30.3902 163.738 30.3446 163.634C30.3007 163.53 30.2787 163.418 30.2787 163.3V163.209L30.5937 163.16V163.3C30.5937 163.378 30.6083 163.451 30.6376 163.519C30.6669 163.586 30.7068 163.645 30.7572 163.697C30.8093 163.748 30.8687 163.788 30.9355 163.817C31.0038 163.846 31.0771 163.861 31.1552 163.861H31.2748C31.3529 163.861 31.4254 163.846 31.4921 163.817C31.5605 163.788 31.6199 163.748 31.6703 163.697C31.7208 163.645 31.7607 163.586 31.7899 163.519C31.8192 163.451 31.8339 163.378 31.8339 163.3V163.009C31.8339 162.931 31.8192 162.858 31.7899 162.792C31.7607 162.723 31.7208 162.664 31.6703 162.614C31.6199 162.563 31.5605 162.523 31.4921 162.494C31.4254 162.465 31.3529 162.45 31.2748 162.45H31.0404V162.15H31.2748C31.3529 162.15 31.4254 162.135 31.4921 162.106C31.5605 162.076 31.6199 162.037 31.6703 161.986C31.7208 161.936 31.7607 161.877 31.7899 161.81C31.8192 161.742 31.8339 161.669 31.8339 161.591V161.42C31.8339 161.342 31.8192 161.269 31.7899 161.202C31.7607 161.134 31.7208 161.075 31.6703 161.024C31.6199 160.974 31.5605 160.934 31.4921 160.905C31.4254 160.875 31.3529 160.861 31.2748 160.861H31.1552C31.0771 160.861 31.0038 160.875 30.9355 160.905C30.8687 160.934 30.8093 160.974 30.7572 161.024C30.7068 161.075 30.6669 161.134 30.6376 161.202C30.6083 161.269 30.5937 161.342 30.5937 161.42V161.561L30.2787 161.51V161.42C30.2787 161.301 30.3007 161.189 30.3446 161.085C30.3902 160.981 30.4521 160.89 30.5302 160.812C30.6083 160.734 30.6995 160.673 30.8036 160.629C30.9094 160.583 31.0217 160.56 31.1405 160.56H31.2895C31.4083 160.56 31.5198 160.583 31.6239 160.629C31.7281 160.673 31.8192 160.734 31.8974 160.812C31.9755 160.89 32.0365 160.981 32.0805 161.085C32.1261 161.189 32.1488 161.301 32.1488 161.42V161.539C32.1488 161.622 32.1374 161.702 32.1147 161.779C32.0935 161.853 32.0626 161.923 32.0219 161.989C31.9828 162.054 31.9356 162.113 31.8803 162.167C31.8249 162.219 31.7631 162.264 31.6947 162.301C31.7631 162.337 31.8249 162.382 31.8803 162.435C31.9356 162.487 31.9828 162.546 32.0219 162.611C32.0626 162.676 32.0935 162.747 32.1147 162.823C32.1374 162.898 32.1488 162.977 32.1488 163.06V163.3Z" fill="black"/>
<path id="2_2" d="M26.7021 158.603C26.624 158.603 26.5508 158.618 26.4824 158.647C26.4157 158.676 26.3571 158.716 26.3066 158.767C26.2562 158.817 26.2163 158.876 26.187 158.945C26.1577 159.012 26.143 159.084 26.143 159.162V159.304L25.8281 159.252V159.162C25.8281 159.043 25.8501 158.932 25.894 158.828C25.9396 158.724 26.0014 158.632 26.0796 158.554C26.1577 158.476 26.2488 158.415 26.353 158.371C26.4572 158.326 26.5687 158.303 26.6875 158.303H26.8364C26.9552 158.303 27.0667 158.324 27.1709 158.366C27.2767 158.409 27.3686 158.47 27.4468 158.549C27.5249 158.629 27.5859 158.725 27.6299 158.837C27.6754 158.948 27.6982 159.073 27.6982 159.213C27.6982 159.352 27.6771 159.491 27.6347 159.631C27.5941 159.771 27.5395 159.908 27.4712 160.043C27.4044 160.179 27.3271 160.31 27.2392 160.437C27.153 160.564 27.0643 160.683 26.9731 160.795C26.7599 161.057 26.5182 161.31 26.248 161.552H27.7226V161.853H25.7524V161.604C26.0568 161.353 26.3286 161.093 26.5679 160.825C26.6704 160.709 26.7705 160.586 26.8681 160.456C26.9658 160.326 27.0529 160.192 27.1294 160.056C27.2059 159.917 27.2669 159.777 27.3125 159.636C27.3597 159.493 27.3833 159.352 27.3833 159.213C27.3833 159.111 27.3678 159.021 27.3369 158.945C27.306 158.868 27.2645 158.805 27.2124 158.754C27.1603 158.704 27.1001 158.667 27.0317 158.642C26.965 158.616 26.895 158.603 26.8218 158.603H26.7021Z" fill="black"/>
<g id="1">
<path id="1_2" d="M21.1102 160.823V160.523H21.9452V157.623L21.1102 157.974V157.674L21.9452 157.322H22.2601V160.523H23.0951V160.823H21.1102Z" fill="black"/>
</g>
</g>
<path id="X" d="M36.3162 156.5L35.5959 155.045L34.8757 156.5H34.5339L35.425 154.701L34.5852 152.999H34.9246L35.5959 154.354L36.2649 152.999H36.6042L35.7644 154.701L36.6555 156.5H36.3162Z" fill="black"/>
<path id="/" d="M9.14551 156.8L10.5396 152.701H10.8545L9.46045 156.8H9.14551Z" fill="black"/>
<g id="Ellipse">
<mask id="path-36-inside-1" fill="white">
<path d="M15.6903 198.445C10.5885 196.825 6.23149 193.439 3.40157 188.895C0.571643 184.352 -0.545752 178.948 0.250046 173.655C1.04584 168.362 3.7027 163.525 7.74349 160.015C11.7843 156.504 16.9443 154.549 22.2968 154.501C27.6494 154.453 32.8439 156.314 36.9474 159.751C41.0509 163.188 43.7947 167.976 44.6859 173.254C45.5772 178.532 44.5575 183.955 41.8101 188.549C39.0627 193.142 34.7675 196.606 29.6959 198.318L25.0903 184.674C26.916 184.058 28.4622 182.811 29.4512 181.157C30.4402 179.504 30.8072 177.551 30.4864 175.651C30.1656 173.751 29.1779 172.028 27.7007 170.791C26.2235 169.554 24.3537 168.883 22.4269 168.901C20.5001 168.918 18.6426 169.622 17.188 170.886C15.7334 172.149 14.777 173.89 14.4905 175.796C14.2041 177.701 14.6063 179.646 15.625 181.282C16.6437 182.918 18.2122 184.136 20.0487 184.72L15.6903 198.445Z"/>
</mask>
<path d="M15.6903 198.445C10.5885 196.825 6.23149 193.439 3.40157 188.895C0.571643 184.352 -0.545752 178.948 0.250046 173.655C1.04584 168.362 3.7027 163.525 7.74349 160.015C11.7843 156.504 16.9443 154.549 22.2968 154.501C27.6494 154.453 32.8439 156.314 36.9474 159.751C41.0509 163.188 43.7947 167.976 44.6859 173.254C45.5772 178.532 44.5575 183.955 41.8101 188.549C39.0627 193.142 34.7675 196.606 29.6959 198.318L25.0903 184.674C26.916 184.058 28.4622 182.811 29.4512 181.157C30.4402 179.504 30.8072 177.551 30.4864 175.651C30.1656 173.751 29.1779 172.028 27.7007 170.791C26.2235 169.554 24.3537 168.883 22.4269 168.901C20.5001 168.918 18.6426 169.622 17.188 170.886C15.7334 172.149 14.777 173.89 14.4905 175.796C14.2041 177.701 14.6063 179.646 15.625 181.282C16.6437 182.918 18.2122 184.136 20.0487 184.72L15.6903 198.445Z" stroke="black" mask="url(#path-36-inside-1)"/>
</g>
</g>
<defs>
<clipPath id="clip0">
<rect width="45" height="379" fill="white"/>
</clipPath>
</defs>
</svg>
